<?xml version="1.0" encoding="UTF-8"?>
<svg width="1182px" height="263px" viewBox="0 0 1182 263" version="1.1" xmlns="http://www.w3.org/2000/svg" xmlns:xlink="http://www.w3.org/1999/xlink">
    <!-- Generator: Sketch 53 (72520) - https://sketchapp.com -->
    <title>Artboard</title>
    <desc>Created with Sketch.</desc>
    <g id="Artboard" stroke="none" stroke-width="1" fill="none" fill-rule="evenodd">
        <path d="M55.2,145.2 C28.9,142.5 15.7,140.4 15.7,131.7 C15.7,124.1 28.9,119.9 46.2,119.9 C63.6,119.9 78.6,122.9 80.1,134.3 L91.3,134.3 C90.6,118.4 68.3,113.5 46.3,113.5 C25.4,113.5 3.7,118.3 3.7,132.9 C3.7,143.7 17.5,148.2 43.2,150.7 C62.8,152.7 82.5,153.9 82.5,164.1 C82.5,174.7 65.7,177.4 49.5,177.4 C28.8,177.4 13.7,174 11.7,160 L0.4,160 C2.1,178 22,183.8 49.4,183.8 C70.4,183.8 94.4,179.3 94.4,162.9 C94.4,150.1 74.8,147.2 55.2,145.2" id="Path" fill="#FFFFFF" fill-rule="nonzero"></path>
        <path d="M128.3,155.4 L152.3,122.1 L176,155.4 L128.3,155.4 L128.3,155.4 Z M146,115.2 L97,182.1 L109.1,182.1 L123.8,161.8 L180.6,161.8 L195,182.1 L208,182.1 L159,115.2 L146,115.2 Z" id="Shape" fill="#FFFFFF" fill-rule="nonzero"></path>
        <polygon id="Path" fill="#FFFFFF" fill-rule="nonzero" points="217 182.1 228.2 182.1 228.2 150.6 294.4 150.6 294.4 144.3 228.2 144.3 228.2 121.6 297.9 121.6 297.9 115.2 217 115.2"></polygon>
        <polygon id="Path" fill="#FFFFFF" fill-rule="nonzero" points="322.4 150.6 394.4 150.6 394.4 144.2 322.4 144.2 322.4 121.6 397.1 121.6 397.1 115.2 311.2 115.2 311.2 182.1 398.3 182.1 398.3 175.7 322.4 175.7"></polygon>
        <polygon id="Path" fill="#FFFFFF" fill-rule="nonzero" points="707.1 182.1 718.3 182.1 718.3 150.6 784.5 150.6 784.5 144.3 718.3 144.3 718.3 121.6 788 121.6 788 115.2 707.1 115.2"></polygon>
        <polygon id="Path" fill="#FFFFFF" fill-rule="nonzero" points="810.7 115.2 799.5 115.2 799.5 182.1 879.1 182.1 879.1 175.7 810.7 175.7"></polygon>
        <polygon id="Path" fill="#FFFFFF" fill-rule="nonzero" points="902.1 150.6 974.1 150.6 974.1 144.2 902.1 144.2 902.1 121.6 976.8 121.6 976.8 115.2 890.9 115.2 890.9 182.1 978 182.1 978 175.7 902.1 175.7"></polygon>
        <polygon id="Path" fill="#FFFFFF" fill-rule="nonzero" points="1005.7 150.6 1077.6 150.6 1077.6 144.2 1005.7 144.2 1005.7 121.6 1080.3 121.6 1080.3 115.2 994.5 115.2 994.5 182.1 1081.5 182.1 1081.5 175.7 1005.7 175.7"></polygon>
        <polygon id="Path" fill="#FFFFFF" fill-rule="nonzero" points="1085.9 115.2 1085.9 121.6 1128.2 121.6 1128.2 182.1 1139.4 182.1 1139.4 121.6 1181.8 121.6 1181.8 115.2"></polygon>
        <path d="M645.7,172.8 C628.5,210 596.8,237.9 553.9,253.4 L552.4,254 L550.9,253.4 C508.1,237.8 476.4,210 459.2,172.8 C436.8,124.1 440.5,42 440.7,38.6 L440.9,34.3 L445.2,34.3 C509.7,34.3 549.7,9.6 550,9.3 L552.4,7.8 L554.8,9.3 C555.2,9.6 595.3,34.3 659.8,34.3 L664.1,34.3 L664.3,38.6 C664.4,42.1 668.1,124.1 645.7,172.8 M433.1,28.5 C433.1,28.5 428.5,121.7 453.2,175.3 C470.5,212.6 502.4,244.2 552.2,262.3 C602.2,244.2 634.1,212.6 651.4,175.3 C676.1,121.7 671.6,28.5 671.6,28.5 C597.5,28.5 552.3,0 552.3,0 C552.3,0 507.3,28.5 433.1,28.5 Z" id="Shape" fill="#FFFFFF" fill-rule="nonzero"></path>
        <path d="M629.9,76.8 L585.1,76.8 C580.2,76.8 578.9,77.3 578.9,77.4 C578.4,77.7 578,78.8 578,81 L578,105.8 L627.9,105.8 C627.2,111.4 626.4,117.1 625.3,122.7 L578,122.7 L578,196.9 C569.7,202.4 562.6,207.2 551.9,211.1 L551.9,172.5 C544.6,175.9 532.7,177.6 520.3,177.6 L498.8,177.6 C494.3,172.4 490.3,166.8 487,161 L523.6,161.2 C537.2,161.2 537.2,154.8 537.2,151.8 C537.2,150 536.2,147.9 534.1,145.8 C532.8,144.4 529.9,141.8 523.5,137.5 L496.3,118.9 C484.9,111 479.1,101.6 479.1,91.1 C479.1,77.1 486.9,60.5 523.9,60.5 L630,60.5 C630.1,64.5 630.1,70.1 629.9,76.8 M552.3,18.4 C542.8,23.8 505.9,42.4 449.4,43.3 C449,60.8 448.6,128.5 467.3,169.1 C483.2,203.6 512.6,229.6 552.3,244.5 C592.1,229.7 621.5,203.6 637.5,169.1 C656.2,128.5 655.8,60.8 655.4,43.3 C598.9,42.4 561.9,23.8 552.3,18.4" id="Shape" fill="#FFFFFF" fill-rule="nonzero"></path>
        <path d="M507.6,86.1 C507.6,88.2 508.5,90.3 510.5,92.4 C512.5,94.5 516,97.4 521.1,100.9 L550.5,119.1 C551,119.4 551.4,119.7 551.9,120 L551.9,76.8 L521.2,76.8 C507.6,76.8 507.6,83.1 507.6,86.1" id="Path" fill="#FFFFFF" fill-rule="nonzero"></path>
    </g>
</svg>