<?xml version="1.0" encoding="utf-8"?>
<!-- Generator: Adobe Illustrator 23.0.2, SVG Export Plug-In . SVG Version: 6.00 Build 0)  -->
<svg version="1.1" id="Layer_1" xmlns="http://www.w3.org/2000/svg" xmlns:xlink="http://www.w3.org/1999/xlink" x="0px" y="0px"
	 viewBox="0 0 450 79.4" style="enable-background:new 0 0 450 79.4;" xml:space="preserve">
<style type="text/css">
	.st0{fill-rule:evenodd;clip-rule:evenodd;fill:#FFFFFF;}
</style>
<g>
	<path class="st0" d="M384.1,52.6h21.6c0,0,0.7,9.8,12.6,9.8c11.9,0,9.5-6.8,9.5-6.8s0.4-4-11.2-6.5c-11.6-2.5-30.1-8.5-30.1-25.8
		S400.1,0,417,0c16.9,0,29.5,7.6,29.5,24h-21.1c0,0-0.2-7.5-9.4-7.5c-9.2,0-8.3,5.9-7.7,6.8c0.6,0.9,2.3,2.9,11.9,5.1
		c9.6,2.2,19,4.4,26.3,14c7.3,9.7,1.8,26.4-8.7,32.1c-10.5,5.7-19.6,5-19.6,5C416,79.4,385.3,79.8,384.1,52.6L384.1,52.6z"/>
	<polygon class="st0" points="364.8,38.7 390.5,78.6 363.2,78.6 339.9,40.5 363.7,1.5 389.9,1.5 364.8,38.7 	"/>
	<path class="st0" d="M244.7,78.6h22V43.7c0,0-0.1-4.2,2.2-0.2l20.2,35.2h22.6V1.5h-22.1v37.3c0,0,0.1,4.2-2.2,0.3L265.7,1.5h-21.1
		V78.6L244.7,78.6z"/>
	<polygon class="st0" points="317.6,1.5 339.7,1.5 339.7,78.6 317.6,78.6 317.6,1.5 	"/>
	<polygon class="st0" points="217.1,1.5 238.5,1.5 238.5,78.6 217.1,78.6 217.1,1.5 	"/>
	<path class="st0" d="M144.8,78.6V1.5H186c0,0,24.7,1.6,24.7,22.5c0,0,0.5,13.1-11,18.7c0,0,10.2,3.6,10.2,21.3v6.3
		c0,0-0.5,4.8,3.1,8.4h-21.7c0,0-2.2-1.8-2.3-7.9c-0.1-6-0.4-13.3-3.4-16.1c-3-2.8-4.8-3.3-9-3.3h-5.8V35.2h11.5c0,0,7.1,0.6,7.1-8
		c0,0,0.2-7.3-7.8-7.3h-12.3c0,0-2-0.2-2,2.3v56.3H144.8L144.8,78.6z"/>
	<polygon class="st0" points="57.2,1.5 71,1.5 71,78.6 57.2,78.6 57.2,1.5 	"/>
	<polygon class="st0" points="42.3,1.5 52.1,1.5 52.1,78.6 42.3,78.6 42.3,1.5 	"/>
	<polygon class="st0" points="28.1,1.5 35.4,1.5 35.4,78.6 28.1,78.6 28.1,1.5 	"/>
	<polygon class="st0" points="14.7,1.5 19.8,1.5 19.8,78.6 14.7,78.6 14.7,1.5 	"/>
	<polygon class="st0" points="0,1.5 3.6,1.5 3.6,78.6 0,78.6 0,1.5 	"/>
	<path class="st0" d="M130.2,37c8.4-5.6,7.6-16.3,7.6-16.3c0-18.9-22.9-19.1-22.9-19.1H75.3v77.1h39c17.4,0,27.2-10.6,27.2-23.6
		C141.5,42.1,130.2,37,130.2,37z M113.7,60.7H99.8c0,0-1.9,0.2-1.9-2.3V22.1c0,0-0.3-2,2.1-2h12c0,0,6.3-0.1,6.3,5.6
		c0,5.7-5.1,6.3-6.5,6.3h-9c0,0-1.1-0.3-1.1,1.3v12.3c0,0-0.3,1.2,1.5,1.2h11.1c0,0,6.7-0.1,6.7,6.9
		C120.8,60.8,114.2,60.7,113.7,60.7z"/>
</g>
</svg>
