<?xml version="1.0" encoding="utf-8"?>
<!-- Generator: Adobe Illustrator 23.0.2, SVG Export Plug-In . SVG Version: 6.00 Build 0)  -->
<svg version="1.1" id="Layer_1" xmlns="http://www.w3.org/2000/svg" xmlns:xlink="http://www.w3.org/1999/xlink" x="0px" y="0px"
	 viewBox="0 0 337.3 116.9" style="enable-background:new 0 0 337.3 116.9;" xml:space="preserve">
<style type="text/css">
	.st0{fill:#FFFFFF;}
</style>
<g>
	<path class="st0" d="M208.1,89.5c-2.3-0.8-4.6-1.5-7.1-2.3c2.6-3.5,5.2-7,7.7-10.4c-1.2-1.2-2.5-2.3-3.5-3.5c-1.8-2-2.9-4.3-3.5-7
		c-0.6-2.7-0.5-5.3,0.2-8c1-3.7,3.2-6.7,6.1-9c2.2-1.7,4.7-2.8,7.4-3.4c1.7-0.3,3.5-0.4,5.2-0.3c3,0.2,5.9,1.1,8.5,2.7
		c0.9,0.6,1.7,1.3,2.7,2c1-1,2-2,2.9-3c0.2-0.2,0.4-0.4,0.6-0.4c2.6,0,5.2,0,7.9,0c0,1.5,0,3,0,4.6c-3.4,0-6.8,0-10.3,0
		c0.9,1.4,1.8,2.6,2.4,3.9c1.5,3.2,2.2,6.5,1.4,10.1c-0.8,4.1-2.8,7.4-5.9,10.1c-2,1.7-4.4,2.9-7,3.5c-3.5,0.9-7,0.8-10.5-0.3
		c-0.2-0.1-0.6,0.2-0.8,0.4c-1.2,1.6-2.4,3.2-3.6,4.9c2,0.6,3.9,1.2,5.9,1.9c3.4,1.1,6.7,2.2,10.1,3.2c2.5,0.8,5,1.7,7.1,3.3
		c3,2.2,4.9,5,5.3,8.8c0.4,3.6-0.5,6.7-2.7,9.5c-1.5,1.8-3.4,3.2-5.6,4.2c-3.1,1.4-6.3,2-9.7,1.9c-5-0.1-9.6-1.3-13.6-4.6
		c-3.1-2.6-5.1-5.9-5.2-10c-0.1-3.4,1.1-6.4,3.4-8.9C205.3,92.1,206.7,90.9,208.1,89.5z M231.2,62.7c0.3-6.3-5.4-12.1-12.5-11.8
		c-6.4,0.3-11.6,5.1-11.6,11.8c0,6.6,5.3,11.7,12.2,11.7C225.7,74.5,231.5,69.3,231.2,62.7z M219.8,111.6c3.4,0.2,6.5-0.6,9.2-2.8
		c2.5-2.1,3.4-5.3,2.2-8.4c-1-2.8-3.2-4.4-5.8-5.3c-3.7-1.4-7.5-2.5-11.3-3.7c-0.3-0.1-0.8,0-1,0.2c-2.2,1.4-4.1,3.2-5.4,5.6
		c-2.4,4.4-1.4,8.9,2.6,11.8C213.1,110.9,216.3,111.9,219.8,111.6z"/>
	<path class="st0" d="M197.7,66.9c0.1,12-9.4,21.3-21.3,21.2c-11.2-0.1-21.7-9.2-20.8-22.8c0.7-10.6,9-19.8,21.1-19.8
		C188.4,45.6,197.7,54.9,197.7,66.9z M191.6,66.5c-0.1-0.9-0.3-2.2-0.5-3.5c-0.1-0.4-0.3-0.9-0.4-1.3c-1.8-6.2-7.7-10.7-14.4-10.4
		c-2.6,0.1-5.1,0.7-7.3,2.2c-3.8,2.5-6,5.9-6.9,10.4c-0.5,2.8-0.4,5.5,0.5,8.1c1.9,5.6,5.7,9.2,11.6,10.3c3.5,0.6,6.9,0.1,10-1.8
		C189.1,77.3,191.3,72.7,191.6,66.5z"/>
	<path class="st0" d="M59.4,66.9c0.2,11.9-9.4,21.2-21.1,21.2c-11.5,0-21.1-9.3-21-21.4c0.1-11.9,9.5-21.3,21.1-21.2
		C50,45.6,59.5,54.9,59.4,66.9z M37.3,51.3c-3.3-0.1-7,1.8-9.6,4.5c-2.1,2.2-3.4,4.9-4,8c-0.8,4.2-0.2,8.1,2,11.7
		c2.2,3.7,5.6,6.1,10,6.8c3.6,0.6,7.1,0.1,10.2-1.9c3.8-2.4,6-5.9,6.9-10.3c0.9-4.2,0.1-8.1-2-11.6C48.1,53.8,43.9,51.3,37.3,51.3z"
		/>
	<path class="st0" d="M93.7,86.8c-1.6,0-3.2,0-4.9,0c-0.2-1-0.4-2.1-0.6-3.1c-1.2,0.8-2.4,1.7-3.7,2.4c-2.8,1.6-5.8,2-9,1.8
		c-4.3-0.2-7.6-2-10-5.6c-1.2-1.8-1.9-3.8-2-5.9c-0.1-2.6,0.1-5.2,1.4-7.6c1.3-2.4,3.1-4.1,5.4-5.4c2.7-1.5,5.6-2.4,8.7-2.8
		c2.9-0.4,5.8-0.6,8.8-1c0-2.5,0-5,0-7.6c-7.2,0-14.4,0-21.9,0c0.4-1.7,0.7-3.2,1.1-4.7c0.1-0.2,0.7-0.4,1.1-0.4
		c6.6,0,13.2,0,19.9,0c1.9,0,3.8,0,5.7,0C93.7,60.2,93.7,73.4,93.7,86.8z M87.8,64.2c-1.5,0.2-2.7,0.4-4,0.6
		c-3.2,0.3-6.3,0.8-9.3,2.1c-3.6,1.6-5.9,6.1-4.9,9.8c1.2,4.2,4.2,6.3,8.3,6.3c3.4,0,6.1-1.7,8.7-3.8c1.1-0.9,1.2-1.9,1.2-3.1
		c-0.1-3.5,0-7,0-10.6C87.8,65.1,87.8,64.8,87.8,64.2z"/>
	<path class="st0" d="M132.4,86.8c-2,0-3.9,0-5.9,0c0-0.5,0-0.9,0-1.3c0-8.3,0-16.7,0-25c0-2.2-0.3-4.4-1.7-6.3
		c-1.2-1.7-2.8-2.5-4.7-2.8c-4.2-0.5-7.7,1-10.8,3.7c-1,0.9-1.9,2-2.9,3c-0.7,0.7-0.9,1.4-0.9,2.4c0,8.3,0,16.7,0,25
		c0,0.4,0,0.8,0,1.3c-2,0-3.9,0-5.9,0c0-13.2,0-26.5,0-39.8c1.9,0,3.8,0,5.9,0c0,1.7,0,3.5,0,5.4c0.4-0.3,0.6-0.4,0.8-0.6
		c2.5-3,5.7-5,9.4-5.8c4.4-1,8.6-0.5,12.2,2.5c3.3,2.7,4.6,6.3,4.6,10.5c0,9,0,18.1,0,27.1C132.5,86.2,132.5,86.4,132.4,86.8z"/>
	<path class="st0" d="M292.9,55.1c-2.2-0.9-4.2-1.8-6.3-2.5c-3-1-6.2-1.4-9.4-1c-2.8,0.3-5.3,1.2-7.5,3c-2.2,1.8-3.8,4-4.8,6.6
		c-1.1,2.9-1.3,5.9-0.8,8.9c0.6,3.3,2.1,6.1,4.6,8.4c2,1.9,4.5,3,7.2,3.6c2.7,0.5,5.4,0.4,8-0.2c3-0.7,6-1.6,8.7-3.2
		c0.2-0.1,0.4-0.1,0.7-0.3c0,1.8,0,3.5,0,5.2c0,0.3-0.5,0.7-0.9,0.9c-4.6,2.6-9.6,3.8-14.8,3.4c-7.5-0.5-13.4-3.8-17.3-10.4
		c-2.6-4.4-3.4-9.2-2.5-14.3c0.9-5,3.1-9.2,7-12.6c2.7-2.4,5.9-3.8,9.5-4.6c3.5-0.7,6.9-0.8,10.3,0.1c2.7,0.7,5.3,1.9,7.9,2.9
		c0.2,0.1,0.5,0.5,0.5,0.8C292.9,51.8,292.9,53.5,292.9,55.1z"/>
	<path class="st0" d="M299.4,79.3c2.6,1,5,2.1,7.6,2.9c3.1,0.9,6.2,0.9,9.1-0.5c1.7-0.8,2.9-2.2,3.3-4.1c0.3-1.7-0.4-3.2-1.7-4.1
		c-2.1-1.5-4.4-2.8-6.7-4.1c-3-1.6-5.9-3.1-8.5-5.4c-5-4.4-4.4-11.5,0.2-15.3c3.6-3,8-3.6,12.5-3.2c2.8,0.3,5.4,1.1,7.8,2.3
		c0.6,0.3,1,0.6,1,1.4c-0.1,1.6,0,3.2,0,4.7c-2.1-0.8-4.1-1.7-6.2-2.4c-3.4-1.1-6.8-1.2-10.1,0.5c-1.6,0.9-2.6,2.3-2.6,4.1
		c0,2,1,3.4,2.6,4.3c3.2,1.8,6.6,3.4,9.8,5.2c2.8,1.5,5.2,3.4,6.8,6.2c0.9,1.7,1.3,3.4,1.1,5.3c-0.2,2.4-0.9,4.7-2.6,6.5
		c-1.8,1.9-4,3-6.5,3.7c-3,0.8-6,0.8-9.1,0.4c-2.6-0.4-5-1.1-7.3-2.4c-0.2-0.1-0.5-0.4-0.5-0.6C299.4,83,299.4,81.1,299.4,79.3z"/>
	<path class="st0" d="M154.4,81.4c0,1.6,0,3.2,0,4.9c-3,1.7-6.1,2.3-9.5,1.6c-2.9-0.7-5-2.5-5.8-5.4c-0.5-1.8-0.8-3.7-0.8-5.6
		c-0.1-17.8,0-35.6,0-53.4c0-0.2,0-0.5,0-0.8c2,0,4,0,6.1,0c0,0.4,0,0.9,0,1.3c0,17.6,0,35.2,0,52.9c0,1.4,0.1,2.9,1.1,4.1
		c1.1,1.5,2.7,1.8,4.3,1.6C151.3,82.2,152.8,81.7,154.4,81.4z"/>
	<path class="st0" d="M16.1,81.4c0,1.4,0,3,0,4.5c0,0.3-0.4,0.7-0.7,0.8c-2.8,1.3-5.8,1.9-8.8,1.1c-2.7-0.7-4.8-2.4-5.7-5.1
		C0.4,81.1,0,79.3,0,77.6C0,59.7,0,41.8,0,23.9c0-0.4,0-0.8,0-1.3c2,0,3.9,0,5.9,0C6,23.1,6,23.5,6,24c0,17.5,0,35,0,52.4
		c0,1.7,0.1,3.4,1.4,4.7c1.1,1.2,2.5,1.5,4.1,1.3C13,82.2,14.5,81.8,16.1,81.4z"/>
	<path class="st0" d="M254.8,19.4c1.8,1.2,2.8,3,3.5,5c1.6,4.5-1.6,9.6-5.8,11.6c-4.3,2-8.7,2-13,0.2c-5.6-2.3-9-6.5-10.7-12.2
		c-0.8-2.6-1-5.4-0.9-8.2c0.2-2.8,0.7-5.4,1.8-8c1-2.4,2.4-4.6,4.1-6.5c1-1.1,3.3-1.1,4.2,0c1.2,1.5,1.4,2.9-0.1,4.7
		c-3.2,3.9-5.2,8.3-4.7,13.4c0.5,5.1,2.7,9.4,7.7,11.7c3,1.4,6.1,1.1,9-0.4c3.1-1.6,4.9-4.2,5.2-7.7C255.3,21.8,255,20.6,254.8,19.4
		z"/>
	<path class="st0" d="M245,24.8c-1.9-1.2-2.9-2.9-3.5-4.8c-1.6-4.7,1.4-9.5,5.2-11.5c4.8-2.5,9.7-2.3,14.5,0
		c3.2,1.5,5.7,3.7,7.5,6.7c1.3,2.1,2.3,4.4,2.6,7c0.2,2.1,0.4,4.3,0.4,6.5c0,3.3-1,6.4-2.4,9.3c-1,1.9-2.1,3.7-3.7,5.1
		c-1.3,1.1-2.8,1-3.9-0.1c-1.2-1.1-1.3-2.5-0.4-4c1.2-1.9,2.5-3.6,3.4-5.6c2.6-5.6,2.4-11.1-1.2-16.2c-2.8-3.9-6.7-5.7-11.4-4.5
		c-4.6,1.2-7.4,4.5-7.6,9.3C244.4,22.8,244.8,23.7,245,24.8z"/>
	<path class="st0" d="M252.8,26.8c-1.9,2.6-4.2,3.9-7.2,4.1c-4.7,0.4-8.4-3.1-9.9-6.7c-2.1-5.2-1.5-10.1,1.4-14.9
		c2.5-4.2,6.1-6.7,10.6-8.1c4.8-1.5,9.7-1.4,14.5,0.2c3.2,1,6.1,2.6,8.4,5c0.9,0.9,0.9,3-0.1,4.1c-1,1.1-2.9,1.3-4,0.4
		c-2.1-1.8-4.4-3.2-7.1-4.1c-2.9-1-5.9-1.3-9-0.6c-2.9,0.6-5.3,1.8-7.4,3.9c-4.7,4.7-4.2,11.7,0.8,15.7
		C246.6,27.5,249.5,28.1,252.8,26.8z"/>
	<path class="st0" d="M247,46.9c2,0,3.9,0,5.9,0c0,13.3,0,26.5,0,39.8c-1.9,0-3.9,0-5.9,0C247,73.5,247,60.2,247,46.9z"/>
	<path class="st0" d="M332.8,55.4c-2.4,0-4.4-2.1-4.5-4.5c-0.1-2.4,2-4.5,4.5-4.5c2.4,0,4.6,2.1,4.6,4.5
		C337.3,53.1,335.2,55.4,332.8,55.4z M332.8,55c2.5-0.1,4.1-2,4.1-4.2c0-2.4-1.7-4.1-4.1-4.1c-2.2,0-4,2.1-4,4.2
		C328.7,53,330.7,55.1,332.8,55z"/>
	<path class="st0" d="M331.8,51.4c0,0.7,0,1.3,0,2c-0.1,0.1-0.2,0.1-0.3,0.2c-0.2-0.2-0.5-0.4-0.5-0.6c0-1.6,0-3.1,0-4.6
		c1.6-0.4,2.8-0.1,3.2,0.7c0.5,0.9,0,1.6-0.9,2.2c0.4,0.6,0.5,1.5,1.6,1.5c0.1,0,0.3,0.2,0.2,0.3c-0.1,0.2-0.2,0.4-0.4,0.5
		c-0.6,0.1-1.2,0-1.5-0.6c-0.3-0.6-0.7-1.1-1.1-1.6C332,51.3,331.9,51.3,331.8,51.4z M331.9,50.8c0.6-0.3,1.1-0.5,1.5-0.8
		c0.1-0.1,0.1-0.6-0.1-0.7c-0.4-0.2-0.9-0.4-1.4-0.6C331.9,49.5,331.9,50,331.9,50.8z"/>
</g>
</svg>
