<?xml version="1.0" encoding="utf-8"?>
<!-- Generator: Adobe Illustrator 23.0.2, SVG Export Plug-In . SVG Version: 6.00 Build 0)  -->
<svg version="1.1" id="Layer_1" xmlns="http://www.w3.org/2000/svg" xmlns:xlink="http://www.w3.org/1999/xlink" x="0px" y="0px"
	 viewBox="0 0 452 132.2" style="enable-background:new 0 0 452 132.2;" xml:space="preserve">
<style type="text/css">
	.st0{fill:#FFFFFF;}
</style>
<path class="st0" d="M66.1,0C29.6,0,0,29.7,0,66.1c0,36.5,29.7,66.1,66.1,66.1c36.5,0,66.1-29.7,66.1-66.1
	C132.2,29.7,102.5,0,66.1,0z M90.9,83c-0.5,0.1-1.1,0.2-1.6,0.2c-5,0.6-10.3,1.1-15.9,1.3c-2.4,0.1-4.8,0.1-7.3,0.1
	s-4.9-0.1-7.3-0.1c-5.6-0.2-10.9-0.6-15.9-1.3c-0.4-3.7-0.7-7.6-0.9-11.6c-0.1-1.8-0.1-3.7-0.1-5.5c0-1.9,0-3.7,0.1-5.5
	c0.2-4,0.5-7.9,0.9-11.6c0.1-0.8,0.2-1.5,0.3-2.3C46.5,23.1,55.5,6,66.1,6c33.2,0,60.1,26.9,60.1,60.1
	C126.1,73.6,111.7,80.1,90.9,83z"/>
<path class="st0" d="M90.9,49.2c-0.6-0.9-1.2-1.7-1.9-2.5c-5.5-6.5-13.7-10.6-22.9-10.6c-3,0-5.6,4.6-7.3,11.6
	c-0.7,2.8-1.2,6-1.5,9.5C57,60,56.9,63,56.9,66.1s0.1,6.1,0.4,8.9c2.8,0.3,5.8,0.4,8.9,0.4c3.1,0,6.1-0.1,8.9-0.4
	c6.2-0.6,11.5-1.8,15.2-3.3s5.9-3.5,5.9-5.5C96.1,59.9,94.2,54.1,90.9,49.2L90.9,49.2z"/>
<path class="st0" d="M194.5,33.3c7.7,0,14,3.8,18,8l-6.2,7c-3.3-3.2-6.9-5.2-11.7-5.2c-10.4,0-17.8,8.7-17.8,22.9
	c0,14.4,6.9,23.1,17.4,23.1c5.6,0,9.8-2.3,13.4-6.3l6.2,6.9c-5.1,5.9-11.7,9.2-19.8,9.2c-16.1,0-28.8-11.6-28.8-32.6
	C165.2,45.6,178.2,33.3,194.5,33.3L194.5,33.3z"/>
<path class="st0" d="M238.8,49.1c11.9,0,22.7,9.1,22.7,25c0,15.8-10.8,24.9-22.7,24.9c-11.8,0-22.6-9.1-22.6-24.9
	C216.3,58.2,227,49.1,238.8,49.1L238.8,49.1z M238.8,89.9c7,0,11.2-6.3,11.2-15.8c0-9.6-4.3-15.9-11.2-15.9s-11.1,6.3-11.1,15.9
	C227.7,83.6,231.9,89.9,238.8,89.9L238.8,89.9z"/>
<path class="st0" d="M265.2,50.3h9.2l0.8,8.4h0.4c3.4-6.2,8.4-9.6,13.5-9.6c2.4,0,4,0.3,5.4,1l-1.9,9.7c-1.6-0.5-2.9-0.8-4.9-0.8
	c-3.8,0-8.3,2.6-11.2,9.8v29h-11.1V50.3H265.2z"/>
<path class="st0" d="M315.2,49.1c12.9,0,19.7,9.3,19.7,22.6c0,2.1-0.2,4.1-0.5,5.2h-30.2c1,8.6,6.4,13.5,14,13.5
	c4.1,0,7.6-1.3,11-3.5l3.8,7c-4.6,3-10.3,5.1-16.3,5.1c-13.2,0-23.4-9.2-23.4-24.9C293.4,58.6,304.1,49.1,315.2,49.1L315.2,49.1z
	 M325.2,69.8c0-7.6-3.2-12.1-9.7-12.1c-5.6,0-10.5,4.2-11.4,12.1H325.2L325.2,69.8z"/>
<path class="st0" d="M351.8,65.6c0-20.1,10.9-32.8,26.3-32.8c15.3,0,26.2,12.7,26.2,32.8c0,20.2-10.9,33.3-26.2,33.3
	C362.8,99,351.8,85.9,351.8,65.6L351.8,65.6z M399.8,65.6c0-17.6-8.7-28.8-21.6-28.8c-13,0-21.7,11.1-21.7,28.8
	c0,17.7,8.7,29.2,21.7,29.2C391.1,94.9,399.8,83.4,399.8,65.6L399.8,65.6z"/>
<path class="st0" d="M412.8,86.3c4.7,5.2,11.3,8.6,18.8,8.6c9.7,0,15.9-5.2,15.9-12.8c0-7.9-5.2-10.6-11.5-13.4l-9.7-4.4
	c-5.5-2.4-12.9-6.4-12.9-15.9c0-9.2,7.9-15.7,18.5-15.7c7.7,0,13.9,3.5,17.8,7.7l-2.6,3c-3.7-4-8.8-6.6-15.2-6.6
	c-8.4,0-14,4.5-14,11.4c0,7.4,6.4,10.2,11,12.3l9.7,4.3C445.7,68,452,72,452,81.7s-8,17.1-20.4,17.1c-9.3,0-16.5-4-21.5-9.6
	L412.8,86.3L412.8,86.3z"/>
</svg>
