<?xml version="1.0" encoding="utf-8"?>
<!-- Generator: Adobe Illustrator 23.0.2, SVG Export Plug-In . SVG Version: 6.00 Build 0)  -->
<svg version="1.1" id="Layer_1" xmlns="http://www.w3.org/2000/svg" xmlns:xlink="http://www.w3.org/1999/xlink" x="0px" y="0px"
	 viewBox="0 0 500.6 106.9" style="enable-background:new 0 0 500.6 106.9;" xml:space="preserve">
<style type="text/css">
	.st0{fill:#FFFFFF;}
</style>
<g>
	<path class="st0" d="M0,0h50.9c0,17,0,33.9,0,50.9c-16.9,0-33.9,0-50.9,0V0L0,0z"/>
	<path class="st0" d="M56,0h50.9c0,17,0,33.9,0,50.9c-16.9,0-33.9,0-50.8,0C56,33.9,56,17,56,0L56,0z"/>
	<path class="st0" d="M458.6,19.4c4.7-3.1,10.7-3.3,16-1.9c0,3.1,0,6.3,0,9.4c-2.5-1.1-5.5-1.8-8.1-0.7c-2.1,0.8-3.3,3-3.7,5.1
		c-0.4,2.7-0.1,5.5-0.2,8.2c5.4,0,10.7,0,16.1,0c0-3.5,0-7,0-10.4c3.6-1,7.3-2.2,10.9-3.3c0,4.6,0,9.2,0,13.8c3.6-0.1,7.3,0,10.9,0
		v8.9c-3.6-0.1-7.3,0-10.9-0.1c0,5.1,0,10.3,0,15.4c0.1,2.8-0.2,5.7,0.2,8.5c0.2,1.7,0.8,3.5,2.4,4.4c2.6,1.5,6,0.8,8.4-0.8v9
		c-3.1,1.4-6.7,1.8-10.1,1.5c-3.2-0.2-6.6-1.4-8.7-4c-2.4-2.9-3.1-6.8-3.1-10.5c0-7.9,0-15.8,0-23.6c-5.4,0-10.7,0-16.1,0
		c0,12.4,0,24.7,0,37.1c-3.7,0-7.3,0-11,0c0-12.4,0-24.7,0-37.1c-2.6,0-5.1,0-7.7,0c0-2.9,0-5.9,0-8.8c2.5-0.1,5.1,0,7.6,0
		c0.2-3.9-0.4-7.9,0.8-11.7C453.4,24.4,455.6,21.3,458.6,19.4L458.6,19.4z"/>
	<path class="st0" d="M223.1,20c2.2-0.3,4.6,0.4,6.1,2.2c1.7,1.9,2,4.9,0.8,7.1c-1.4,2.5-4.6,3.7-7.3,3.1c-2.9-0.5-5.2-3.2-5.1-6.1
		C217.4,23.1,220.1,20.4,223.1,20L223.1,20z"/>
	<path class="st0" d="M138.8,21.4c5.3,0,10.7,0,16,0c5,12.6,10,25.3,15,37.9c1.3,3.2,2.5,6.4,3.8,9.5c6.4-15.8,12.9-31.6,19.3-47.4
		c5.1-0.1,10.3,0,15.4,0c0,21.4,0,42.8,0,64.1c-3.7,0-7.4,0-11.1,0c0-15.8,0-31.6,0-47.3c0-0.7,0-1.4-0.1-2.1
		c-0.2,0.3-0.4,0.7-0.6,1c-6.4,16.1-12.8,32.3-19.2,48.4c-2.6,0.1-5.3,0-7.9,0c-6.6-16.1-13-32.3-19.6-48.5c-0.2-0.3-0.4-0.7-0.6-1
		c-0.1,6.9,0,13.8-0.1,20.7c0,9.6,0,19.1,0,28.7c-3.5,0-7,0-10.5,0C138.8,64.1,138.8,42.8,138.8,21.4L138.8,21.4z"/>
	<path class="st0" d="M253.4,39.5c5.3-1.5,11-1.5,16.3,0c1.1,0.3,2.2,0.7,3.1,1.3c-0.1,3.5,0,7,0,10.5c-3.5-2.7-8-4.4-12.6-3.9
		c-3.6,0.3-7,2.2-9.1,5.1c-2.8,3.6-3.4,8.3-2.9,12.7c0.4,3.4,1.8,6.9,4.4,9.1c2.8,2.5,6.7,3.3,10.3,3.1c3.6-0.4,7-1.9,9.9-4.1
		c0,3.3,0,6.6,0,10c-4.5,2.7-9.9,3.4-15,3.1c-5.3-0.3-10.5-2.3-14.3-6c-4.1-4-6.4-9.7-6.7-15.4c-0.3-5.9,0.9-12.1,4.3-17.1
		C244,43.9,248.5,40.9,253.4,39.5L253.4,39.5z"/>
	<path class="st0" d="M373.5,38.8c5.1-0.9,10.4-0.2,15.2,1.6c0,3.4,0,6.7,0,10.1c-3.4-2.3-7.5-3.6-11.6-3.4
		c-2.1,0.1-4.3,0.9-5.3,2.9c-0.7,1.9-0.2,4.5,1.6,5.6c3.1,2.1,6.8,3,10.1,4.8c2.5,1.4,5,3.3,6.3,6c2.4,5,1.4,11.7-2.9,15.5
		c-4.1,3.8-9.9,4.9-15.3,4.6c-3.8-0.2-7.7-1-11.2-2.6c0-3.5,0-7.1,0-10.6c3,2.1,6.4,3.7,10,4.3c2.5,0.4,5.2,0.4,7.6-0.7
		c2.2-1.1,2.6-4.3,1.3-6.2c-1.2-1.5-3.1-2.3-4.8-3.1c-3.2-1.5-6.6-2.7-9.5-4.9c-2-1.6-3.5-3.8-4.1-6.2c-0.9-3.7-0.6-7.8,1.5-11
		C365,41.8,369.2,39.6,373.5,38.8L373.5,38.8z"/>
	<path class="st0" d="M297.4,40.3c3-1.8,6.9-2,10.2-0.9c0,3.7,0,7.3,0,11c-2.2-1.4-4.9-2-7.4-1.7c-3.1,0.4-5.6,2.8-6.9,5.5
		c-1.4,2.9-1.7,6.2-1.6,9.4c0,7.3,0,14.7,0,22c-3.6,0-7.2,0-10.8,0c0-15.3,0-30.6,0-45.9c3.6,0,7.2,0,10.9,0c0,2.6,0,5.3,0,7.9
		C292.9,44.6,294.7,41.8,297.4,40.3L297.4,40.3z"/>
	<path class="st0" d="M218.5,39.6c3.6,0,7.3-0.1,10.9,0c0,15.3,0,30.6,0,45.9c-3.6,0-7.3,0-10.9,0C218.5,70.2,218.5,54.9,218.5,39.6
		L218.5,39.6z"/>
	<path class="st0" d="M353.2,50.3c-1.9-4.2-5.4-7.8-9.6-9.7c-4.9-2.2-10.5-2.5-15.7-1.9c-5.5,0.7-10.9,3.3-14.5,7.7
		c-3.2,3.9-4.8,9-5.1,14c-0.4,5.9,0.5,12.2,4,17.2c3,4.3,7.6,7.2,12.7,8.3c4.2,0.9,8.6,0.9,12.9,0c4.9-1,9.6-3.8,12.6-7.8
		c3-3.8,4.5-8.6,4.8-13.4C355.8,59.9,355.3,54.8,353.2,50.3z M342.6,71.4c-1.1,2.4-3,4.4-5.4,5.3c-2.8,1.1-6,1.2-9,0.4
		c-3-0.8-5.5-2.9-6.9-5.7c-1.8-3.5-2-7.6-1.7-11.5c0.3-3.5,1.6-7.2,4.2-9.6c1.9-1.8,4.6-2.7,7.2-2.9c3.3-0.2,6.8,0.7,9.2,3.1
		c2.5,2.5,3.5,6.1,3.8,9.6C344.4,63.9,344.2,67.9,342.6,71.4z"/>
	<path class="st0" d="M441.3,51.6c-1.7-4.6-5.1-8.5-9.4-10.7c-5-2.5-10.8-2.9-16.3-2.2c-4.4,0.6-8.8,2.2-12.2,5.2
		c-4.1,3.6-6.5,8.8-7.3,14.1c-0.7,5.3-0.4,11,1.7,16c2.1,4.9,6.2,8.9,11.2,10.8c4.9,1.9,10.3,2.1,15.5,1.3
		c5.3-0.9,10.3-3.6,13.5-7.9c3.5-4.4,5-10.1,5-15.7C443.1,58.9,442.7,55.1,441.3,51.6z M431.4,67.2c-0.4,2.4-1.3,4.8-2.8,6.7
		c-1.6,1.9-4,3.1-6.4,3.5c-2.6,0.4-5.4,0.2-7.9-0.9c-2.7-1.1-4.7-3.4-5.8-6.1c-1.3-3.2-1.6-6.6-1.3-10c0.3-3.3,1.2-6.6,3.3-9.2
		c2-2.4,5-3.7,8-3.9c3.1-0.2,6.4,0.5,8.8,2.6c2.2,1.8,3.4,4.6,4,7.3C431.9,60.6,431.9,63.9,431.4,67.2z"/>
	<path class="st0" d="M0,56c17,0,33.9,0,50.9,0c0,17,0,33.9,0,50.9H0V56L0,56z"/>
	<path class="st0" d="M56,56c16.9,0,33.9,0,50.9,0c0,17,0,33.9,0,50.9H56C56,89.9,56,73,56,56L56,56z"/>
</g>
</svg>
