<?xml version="1.0" encoding="utf-8"?>
<!-- Generator: Adobe Illustrator 23.0.2, SVG Export Plug-In . SVG Version: 6.00 Build 0)  -->
<svg version="1.1" id="Layer_1" xmlns="http://www.w3.org/2000/svg" xmlns:xlink="http://www.w3.org/1999/xlink" x="0px" y="0px"
	 viewBox="0 0 201.7 183.5" style="enable-background:new 0 0 201.7 183.5;" xml:space="preserve">
<style type="text/css">
	.st0{fill:#FFFFFF;}
</style>
<g>
	<path class="st0" d="M55.4,155.9l-27.7,27.7L0,155.9H55.4z"/>
	<path class="st0" d="M95.9,92.9c-5.8-6.8-5.5-10.6-2-14.1c4.3-4.3,8.8-2.5,13.8,2.3C107.8,81.1,95.9,92.9,95.9,92.9z M155.3,17.4
		c4.3-4.3,8.8-2.5,13.8,2.3l-11.8,11.8C151.3,24.7,151.6,21.2,155.3,17.4z M191.1,29.5c-5.3,8.1-14.9,21.1-24.7,11.3l24.9-24.9
		c-2.3-2.3-3.8-4.3-5.3-5.5C172.7-3,157.6-3.3,145.8,8.6C138,16.4,135.7,25.4,138,34l-7.8-8.8c-2,1-11.6,9.6-4.5,22.2l-8.8-7.3
		L105,51.9L121.1,68c-12.3-9.8-25.7-8.8-36.3,1.8c-11.3,11.3-10.6,25.2-2,36.5l-1.8-1.8c-11.3-11.3-23.7-7.3-29.7-1.3
		c-4.8,4.8-7.6,11.1-6.3,15.6L20.6,94.4L7.6,107.5l48.3,48.3h25.9l-17.4-17.4c-9.1-9.3-9.3-14.1-4.8-18.6c4.3-4.3,9.3-1.5,18.1,7
		L94.9,144l12.8-12.8l-16.4-16.4c11.8,8.8,25.9,9.3,38.5-3.3l0.3-0.3l0,0c7.8-7,10.1-14.1,10.1-14.1l-9.8-6.5
		c-5.3,8.1-14.6,21.1-24.4,11.3l24.9-24.9l15.6,15.6l13.6-13.6l-19.4-19.4c-9.1-9.1-3.8-17.6,0-20.9c1.8,3.8,4.3,7.3,7.6,10.6
		c12.6,12.6,28.7,15.1,43.1,1l0.3-0.3l0,0c7.8-7,10.1-14.1,10.1-14.1S191.1,29.5,191.1,29.5z"/>
</g>
</svg>
