<?xml version="1.0" encoding="utf-8"?>
<!-- Generator: Adobe Illustrator 23.0.2, SVG Export Plug-In . SVG Version: 6.00 Build 0)  -->
<svg version="1.1" id="Layer_1" xmlns="http://www.w3.org/2000/svg" xmlns:xlink="http://www.w3.org/1999/xlink" x="0px" y="0px"
	 viewBox="0 0 195.7 79.1" style="enable-background:new 0 0 195.7 79.1;" xml:space="preserve">
<style type="text/css">
	.st0{fill:#FFFFFF;}
</style>
<g id="XMLID_75_">
	<path id="XMLID_74_" class="st0" d="M127.2,22.7L127.2,22.7c-2.6,2.6-2.6,6.8,0,9.4l9.1,9.1c0.6,0.7,3,3.7,2.1,7.8
		c-0.1,0.2,0,0.4,0.2,0.6c0.2,0.2,0.6,0.2,0.9,0l2.6-2.6l3.4-3.4c3.3-3.3,3.3-8.7,0-12.1l-8.9-8.9C134,20.1,129.8,20.1,127.2,22.7"
		/>
	<path id="XMLID_14_" class="st0" d="M181.7,77.2L181.7,77.2c2.6-2.6,2.6-6.8,0-9.4l-9.1-9.1c-0.6-0.7-3-3.7-2.1-7.8
		c0.1-0.2,0-0.4-0.2-0.6c-0.2-0.2-0.6-0.2-0.9,0l-2.6,2.6l-3.4,3.4c-3.3,3.3-3.3,8.7,0,12.1l8.9,8.9
		C174.9,79.8,179.1,79.8,181.7,77.2"/>
	<path id="XMLID_13_" class="st0" d="M127.2,67.8l45.2-45.1c2.6-2.6,6.8-2.6,9.4,0c2.6,2.6,2.6,6.8,0,9.4l-45.2,45.1
		c-2.6,2.6-6.8,2.6-9.4,0C124.6,74.6,124.6,70.4,127.2,67.8"/>
	<path id="XMLID_12_" class="st0" d="M9.9,33.6H5.4c-3,0-5.4-2.4-5.4-5.4c0-3,2.4-5.4,5.4-5.4h4.5v-4.1c0-6.3,1.6-11.1,4.6-14.1
		c3-3,7.2-4.5,12.8-4.5c2.3,0,4.3,0.2,6.1,0.5c2.6,0.4,4.5,2.7,4.5,5.3c0,3.2-2.7,5.6-5.8,5.4c-0.6-0.1-1.2-0.1-1.8-0.1
		c-4.9,0-7.5,2.7-7.5,8.6v3.1h9.7c3,0,5.4,2.4,5.4,5.4c0,3-2.4,5.4-5.4,5.4h-9.5v39.1c0,3.6-2.9,6.5-6.5,6.5s-6.5-2.9-6.5-6.5V33.6z
		"/>
	<path id="XMLID_11_" class="st0" d="M51.5,0.6L51.5,0.6c3.6,0,6.5,2.9,6.5,6.5v65.5c0,3.6-2.9,6.5-6.5,6.5c-3.6,0-6.5-2.9-6.5-6.5
		V7.1C45,3.6,47.9,0.6,51.5,0.6"/>
	<path class="st0" d="M68,49.7v-0.8c0-17.7,15.9-31.7,33.4-28.5c14.3,2.7,21.6,15.5,21.6,30c0,2-1.6,3.7-3.7,3.7H81.7
		c-0.4,0-0.6,0.3-0.6,0.7c1.6,8.8,8.1,13.7,16.2,13.7c4.8,0,8.6-1.4,12.1-3.9c2-1.5,4.8-1.5,6.7,0.2c2.4,2.1,2.4,5.9-0.1,8
		c-4.9,4-11,6.4-19,6.4C80.7,79.1,68,67.2,68,49.7 M109.4,45.5c0.3,0,0.6-0.3,0.6-0.6c-1-8.1-5.9-14.3-14.3-14.3
		c-7.8,0-13.3,5.8-14.6,14.3c-0.1,0.3,0.2,0.7,0.6,0.7H109.4z"/>
	<path class="st0" d="M191.3,75.4h-1v2.9h-0.6v-2.9h-1.1v-0.4h2.7V75.4z M195.7,78.3h-0.6v-2.8h0l-1.1,2.8h-0.3l-1.1-2.8h0v2.8H192
		v-3.4h0.9l1,2.6l1-2.6h0.8V78.3z"/>
</g>
</svg>
