<?xml version="1.0" encoding="utf-8"?>
<!-- Generator: Adobe Illustrator 23.0.2, SVG Export Plug-In . SVG Version: 6.00 Build 0)  -->
<svg version="1.1" id="Layer_1" xmlns="http://www.w3.org/2000/svg" xmlns:xlink="http://www.w3.org/1999/xlink" x="0px" y="0px"
	 viewBox="0 0 309.2 98.8" style="enable-background:new 0 0 309.2 98.8;" xml:space="preserve">
<style type="text/css">
	.st0{fill:#FFFFFF;}
</style>
<g>
	<path class="st0" d="M0,97.2l25.7-36.6L1.9,26.8h14.9l10.8,16.5c2,3.1,3.7,5.8,4.9,7.9c1.9-2.9,3.7-5.5,5.4-7.8l11.9-16.6h14.3
		L39.7,59.9l26.2,37.3H51.3L36.8,75.3L33,69.4L14.5,97.2H0z"/>
	<path class="st0" d="M140.8,97.2V26.8h10.7v10c5.2-7.7,12.6-11.6,22.4-11.6c4.2,0,8.1,0.8,11.7,2.3c3.6,1.5,6.2,3.5,8,6
		c1.8,2.5,3,5.4,3.7,8.8c0.4,2.2,0.7,6.1,0.7,11.6v43.3H186V54.4c0-4.9-0.5-8.5-1.4-10.9c-0.9-2.4-2.6-4.3-4.9-5.8
		c-2.4-1.4-5.1-2.2-8.3-2.2c-5.1,0-9.5,1.6-13.2,4.8c-3.7,3.2-5.5,9.4-5.5,18.4v38.5H140.8z"/>
	<path class="st0" d="M205.5,13.7h11.9V0h-11.9V13.7z M205.5,97.2h11.9V26.8h-11.9V97.2z"/>
	<path class="st0" d="M276.1,88.5c-4.4,3.8-8.7,6.4-12.8,8c-4.1,1.5-8.5,2.3-13.2,2.3c-7.7,0-13.7-1.9-17.8-5.7
		c-4.2-3.8-6.2-8.6-6.2-14.5c0-3.4,0.8-6.6,2.4-9.4c1.6-2.9,3.6-5.1,6.2-6.9c2.5-1.7,5.4-3,8.6-3.9c2.3-0.6,5.9-1.2,10.6-1.8
		c9.6-1.1,16.7-2.5,21.3-4.1c0-1.6,0.1-2.7,0.1-3.1c0-4.9-1.1-8.3-3.4-10.3c-3.1-2.7-7.6-4-13.6-4c-5.6,0-9.8,1-12.4,3
		c-2.7,2-4.7,5.4-5.9,10.4l-11.7-1.6c1.1-5,2.8-9,5.2-12.1c2.4-3.1,5.9-5.4,10.5-7.1c4.6-1.7,9.9-2.5,16-2.5c6,0,10.9,0.7,14.7,2.1
		c3.8,1.4,6.5,3.2,8.3,5.3c1.8,2.1,3,4.9,3.7,8.1c0.4,2,0.6,5.7,0.6,11v15.9c0,11.1,0.3,18.1,0.8,21.1c0.5,2.9,1.5,5.8,3,8.5h-12.5
		C277.3,94.7,276.5,91.8,276.1,88.5z M275.1,61.9c-4.3,1.8-10.8,3.3-19.5,4.5c-4.9,0.7-8.4,1.5-10.4,2.4c-2,0.9-3.6,2.2-4.7,3.9
		c-1.1,1.7-1.7,3.6-1.7,5.7c0,3.2,1.2,5.8,3.6,8c2.4,2.1,5.9,3.2,10.6,3.2c4.6,0,8.7-1,12.3-3c3.6-2,6.2-4.8,7.9-8.3
		c1.3-2.7,1.9-6.7,1.9-11.9V61.9z"/>
	<rect x="297.3" class="st0" width="11.9" height="97.2"/>
	<path class="st0" d="M120.6,64.4l11.7-4.1c1.5,7.3,0.7,13.9-2.2,19.8c-2.9,5.9-8.1,10.7-15.4,14.3c-9.2,4.6-17.9,5.4-26.2,2.4
		c-8.2-3-14.9-9.6-20-19.9c-5.3-10.6-6.6-20.2-4.1-28.8c2.5-8.6,8.2-15,16.9-19.4c8.4-4.2,16.7-4.7,24.9-1.7
		c8.2,3.1,14.9,9.8,20.1,20.2c0.3,0.6,0.8,1.6,1.4,2.9l-47,23.4c3.8,6.7,8.4,11.1,13.8,13c5.4,1.9,10.7,1.6,15.9-1
		c3.9-1.9,6.8-4.6,8.5-8.1C120.7,74.1,121.3,69.7,120.6,64.4 M77,64.6l35.2-17.5c-3.1-5.1-6.4-8.4-10-9.9
		c-5.5-2.4-10.9-2.3-16.3,0.4c-4.9,2.4-8.2,6.1-9.9,11.1C74.2,53.6,74.6,58.9,77,64.6"/>
</g>
</svg>
