<?xml version="1.0" encoding="utf-8"?>
<!-- Generator: Adobe Illustrator 23.0.2, SVG Export Plug-In . SVG Version: 6.00 Build 0)  -->
<svg version="1.1" id="Layer_1" xmlns="http://www.w3.org/2000/svg" xmlns:xlink="http://www.w3.org/1999/xlink" x="0px" y="0px"
	 viewBox="0 0 537.1 75.5" style="enable-background:new 0 0 537.1 75.5;" xml:space="preserve">
<style type="text/css">
	.st0{fill:#FFFFFF;}
</style>
<path class="st0" d="M0,63.4V12.1h12.4v51.3H0z"/>
<path class="st0" d="M35,44.8h-4.4v18.6h-12V12.1h17.3c9.2,0,15.9,4.1,15.9,16C51.8,40.3,44.8,44.8,35,44.8z M34.8,22.1h-4.2v12.8h4
	c3.5,0,5.1-1.8,5.1-6.5C39.6,23.8,38.2,22.1,34.8,22.1z"/>
<path class="st0" d="M74,64.3c-11.6,0-18.3-8.7-18.3-26.5c0-17.1,6.1-26.5,18.5-26.5C85,11.3,88.8,17,91,26.6L79.2,30
	c-1.1-5.6-2-8.1-5.1-8.1c-4.3,0-5.7,4.1-5.7,15.9c0,12.7,1.8,16.1,6.3,16.1c4,0,5.1-2.3,5.4-6.5v-2.1h-5.9v-9.4h17.5V44
	C91.8,56.5,86,64.3,74,64.3z"/>
<g>
	<path class="st0" d="M352.4,21.9h-4.8v12.5h4.6c3.5,0,4.8-2.1,4.8-6.3S355.8,21.9,352.4,21.9z"/>
	<path class="st0" d="M391.4,25.2c-0.4,4.7-1.5,10.3-2.7,17.1l-0.3,1.6h6.1l-0.3-1.7C393,35.5,391.9,29.9,391.4,25.2z"/>
	<path class="st0" d="M313.6,41.5h-5.7v12.4h5.9c2.9,0,4.4-2,4.4-6C318.2,43.5,316.6,41.5,313.6,41.5z"/>
	<path class="st0" d="M317.4,26.8c0-3.5-1.2-5.1-4.1-5.1h-5.4v10.5h5.6C316.1,32.1,317.4,30.4,317.4,26.8z"/>
	<path class="st0" d="M272.9,25.2c-0.4,4.7-1.5,10.3-2.7,17.1l-0.3,1.6h6.1l-0.3-1.7C274.5,35.5,273.4,29.9,272.9,25.2z"/>
	<path class="st0" d="M102,0v75.5h435.1V0H102z M154,63.4h-11.1V37.3l-9.4,24.4l-9.4-25.1v26.8h-11.1V12.1h11.1l9.4,25.1l9.4-25.1
		H154V63.4z M191.2,63.4h-30.6V12.1h30.1v10.5h-17.9v8.8h11.7v10.4h-11.7V53h18.4V63.4z M210.6,63.4h-13.8V12.1h14.9
		c13.3,0,19.8,7.8,19.8,25.3C231.5,55.9,224.5,63.4,210.6,63.4z M249.6,63.4h-12.4V12.1h12.4V63.4z M280,63.4l-1.9-9.5h-10.1
		l-1.8,9.5h-12.6l13.3-51.3h12.6l13.2,51.3H280z M314.2,63.4h-18V12.1h18.3c10.1,0,14.9,4.5,14.9,13.6c0,5.6-2.3,8.5-5.9,10.5
		c4.2,1.9,6.7,5.3,6.7,11.5C330.2,57.6,325.1,63.4,314.2,63.4z M356.9,63.4l-6-19.7h-3.3v19.7h-12V12.1h17.7
		c9.2,0,15.9,4.2,15.9,15.6c0,6.7-2.6,11-6.7,13.5l7.5,22.2H356.9z M398.5,63.4l-1.9-9.5h-10.1l-1.8,9.5H372l13.3-51.3h12.6
		l13.2,51.3H398.5z M450.5,63.4h-9.8l-7.6-14.7c-2.9-5.6-5.6-11.1-6.6-14.1c0.3,2.9,0.4,9.5,0.4,14.3v14.5h-11.5V12.1h10.7l6.5,11.7
		c2.9,5.3,5.9,11.6,6.8,14.4c-0.3-2.8-0.4-9.9-0.4-14.6V12.1h11.5V63.4z M471.1,63.4h-13.8V12.1h14.9c13.3,0,19.8,7.8,19.8,25.3
		C492,55.9,485,63.4,471.1,63.4z M512,64.2c-8,0-12.6-3.3-16.9-8.9l8.4-7.6c3.4,4.1,6.2,6.2,8.7,6.2c2.6,0,4.4-1.3,4.4-4.1
		c0-2.9-0.8-4.6-6.6-7.2c-10.2-4.5-13.9-8.4-13.9-16.4c0-8.4,6.1-15,15.9-15c7.9,0,11.9,2.9,16.1,8.1l-8.5,7.6
		c-3.5-4.2-4.8-5.5-8-5.5c-2.3,0-3.7,1.8-3.7,3.7c0,2.7,1.3,4.3,6.5,6.5c10.3,4.5,14.2,8.8,14.2,17.4
		C528.7,58.7,521.6,64.2,512,64.2z"/>
	<path class="st0" d="M471.8,22.3h-2.2v31h1.9c5.7,0,8-2.7,8-15.7C479.5,25.1,477.5,22.3,471.8,22.3z"/>
	<path class="st0" d="M211.3,22.3h-2.2v31h1.9c5.7,0,8-2.7,8-15.7C219,25.1,217,22.3,211.3,22.3z"/>
</g>
</svg>
