<?xml version="1.0" encoding="utf-8"?>
<!-- Generator: Adobe Illustrator 23.0.2, SVG Export Plug-In . SVG Version: 6.00 Build 0)  -->
<svg version="1.1" id="Layer_1" xmlns="http://www.w3.org/2000/svg" xmlns:xlink="http://www.w3.org/1999/xlink" x="0px" y="0px"
	 viewBox="0 0 513.1 145" style="enable-background:new 0 0 513.1 145;" xml:space="preserve">
<style type="text/css">
	.st0{fill:#FFFFFF;}
</style>
<path class="st0" d="M59.3,9.6h12.2c1.4,0,2.5,1.1,2.5,2.5v12.2c0,1.4-1.1,2.5-2.5,2.5H59.3c-1.4,0-2.5-1.1-2.5-2.5V12.1
	C56.8,10.7,57.9,9.6,59.3,9.6z"/>
<path class="st0" d="M98.7,9.6h12.2c1.4,0,2.5,1.1,2.5,2.5v12.2c0,1.4-1.1,2.5-2.5,2.5H98.7c-1.4,0-2.5-1.1-2.5-2.5V12.1
	C96.2,10.7,97.3,9.6,98.7,9.6z"/>
<path class="st0" d="M118.4,9.6h12.2c1.4,0,2.5,1.1,2.5,2.5v12.2c0,1.4-1.1,2.5-2.5,2.5h-12.2c-1.4,0-2.5-1.1-2.5-2.5V12.1
	C115.9,10.7,117,9.6,118.4,9.6z"/>
<path class="st0" d="M19.9,29.3h12.2c1.4,0,2.5,1.1,2.5,2.5V44c0,1.4-1.1,2.5-2.5,2.5H19.9c-1.4,0-2.5-1.1-2.5-2.5V31.8
	C17.4,30.4,18.5,29.3,19.9,29.3z"/>
<path class="st0" d="M39.6,29.3h12.2c1.4,0,2.5,1.1,2.5,2.5V44c0,1.4-1.1,2.5-2.5,2.5H39.6c-1.4,0-2.5-1.1-2.5-2.5V31.8
	C37.1,30.4,38.2,29.3,39.6,29.3z"/>
<path class="st0" d="M59.3,29.3h12.2c1.4,0,2.5,1.1,2.5,2.5V44c0,1.4-1.1,2.5-2.5,2.5H59.3c-1.4,0-2.5-1.1-2.5-2.5V31.8
	C56.8,30.4,57.9,29.3,59.3,29.3z"/>
<path class="st0" d="M79,29.3h12.2c1.4,0,2.5,1.1,2.5,2.5V44c0,1.4-1.1,2.5-2.5,2.5H79c-1.4,0-2.5-1.1-2.5-2.5V31.8
	C76.5,30.4,77.6,29.3,79,29.3z"/>
<path class="st0" d="M98.7,29.3h12.2c1.4,0,2.5,1.1,2.5,2.5V44c0,1.4-1.1,2.5-2.5,2.5H98.7c-1.4,0-2.5-1.1-2.5-2.5V31.8
	C96.2,30.4,97.3,29.3,98.7,29.3z"/>
<path class="st0" d="M39.6,49h12.2c1.4,0,2.5,1.1,2.5,2.5v12.2c0,1.4-1.1,2.5-2.5,2.5H39.6c-1.4,0-2.5-1.1-2.5-2.5V51.5
	C37.1,50.1,38.2,49,39.6,49z"/>
<path class="st0" d="M59.3,49h12.2c1.4,0,2.5,1.1,2.5,2.5v12.2c0,1.4-1.1,2.5-2.5,2.5H59.3c-1.4,0-2.5-1.1-2.5-2.5V51.5
	C56.8,50.1,57.9,49,59.3,49z"/>
<path class="st0" d="M79,49h12.2c1.4,0,2.5,1.1,2.5,2.5v12.2c0,1.4-1.1,2.5-2.5,2.5H79c-1.4,0-2.5-1.1-2.5-2.5V51.5
	C76.5,50.1,77.6,49,79,49z"/>
<path class="st0" d="M98.7,49h12.2c1.4,0,2.5,1.1,2.5,2.5v12.2c0,1.4-1.1,2.5-2.5,2.5H98.7c-1.4,0-2.5-1.1-2.5-2.5V51.5
	C96.2,50.1,97.3,49,98.7,49z"/>
<path class="st0" d="M118.4,49h12.2c1.4,0,2.5,1.1,2.5,2.5v12.2c0,1.4-1.1,2.5-2.5,2.5h-12.2c-1.4,0-2.5-1.1-2.5-2.5V51.5
	C115.9,50.1,117,49,118.4,49z"/>
<path class="st0" d="M19.9,68.7h12.2c1.4,0,2.5,1.1,2.5,2.5v12.2c0,1.4-1.1,2.5-2.5,2.5H19.9c-1.4,0-2.5-1.1-2.5-2.5V71.2
	C17.4,69.8,18.5,68.7,19.9,68.7z"/>
<path class="st0" d="M39.6,68.7h12.2c1.4,0,2.5,1.1,2.5,2.5v12.2c0,1.4-1.1,2.5-2.5,2.5H39.6c-1.4,0-2.5-1.1-2.5-2.5V71.2
	C37.1,69.8,38.2,68.7,39.6,68.7z"/>
<path class="st0" d="M59.3,68.7h12.2c1.4,0,2.5,1.1,2.5,2.5v12.2c0,1.4-1.1,2.5-2.5,2.5H59.3c-1.4,0-2.5-1.1-2.5-2.5V71.2
	C56.8,69.8,57.9,68.7,59.3,68.7z"/>
<path class="st0" d="M79,68.7h12.2c1.4,0,2.5,1.1,2.5,2.5v12.2c0,1.4-1.1,2.5-2.5,2.5H79c-1.4,0-2.5-1.1-2.5-2.5V71.2
	C76.5,69.8,77.6,68.7,79,68.7z"/>
<path class="st0" d="M98.7,68.7h12.2c1.4,0,2.5,1.1,2.5,2.5v12.2c0,1.4-1.1,2.5-2.5,2.5H98.7c-1.4,0-2.5-1.1-2.5-2.5V71.2
	C96.2,69.8,97.3,68.7,98.7,68.7z"/>
<path class="st0" d="M118.4,68.7h12.2c1.4,0,2.5,1.1,2.5,2.5v12.2c0,1.4-1.1,2.5-2.5,2.5h-12.2c-1.4,0-2.5-1.1-2.5-2.5V71.2
	C115.9,69.8,117,68.7,118.4,68.7z"/>
<path class="st0" d="M138.1,68.7h12.2c1.4,0,2.5,1.1,2.5,2.5v12.2c0,1.4-1.1,2.5-2.5,2.5h-12.2c-1.4,0-2.5-1.1-2.5-2.5V71.2
	C135.6,69.8,136.7,68.7,138.1,68.7z"/>
<path class="st0" d="M19.9,88.4h12.2c1.4,0,2.5,1.1,2.5,2.5v12.2c0,1.4-1.1,2.5-2.5,2.5H19.9c-1.4,0-2.5-1.1-2.5-2.5V90.9
	C17.4,89.5,18.5,88.4,19.9,88.4z"/>
<path class="st0" d="M39.6,88.4h12.2c1.4,0,2.5,1.1,2.5,2.5v12.2c0,1.4-1.1,2.5-2.5,2.5H39.6c-1.4,0-2.5-1.1-2.5-2.5V90.9
	C37.1,89.5,38.2,88.4,39.6,88.4z"/>
<path class="st0" d="M59.3,88.4h12.2c1.4,0,2.5,1.1,2.5,2.5v12.2c0,1.4-1.1,2.5-2.5,2.5H59.3c-1.4,0-2.5-1.1-2.5-2.5V90.9
	C56.8,89.5,57.9,88.4,59.3,88.4z"/>
<path class="st0" d="M79,88.4h12.2c1.4,0,2.5,1.1,2.5,2.5v12.2c0,1.4-1.1,2.5-2.5,2.5H79c-1.4,0-2.5-1.1-2.5-2.5V90.9
	C76.5,89.5,77.6,88.4,79,88.4z"/>
<path class="st0" d="M98.7,88.4h12.2c1.4,0,2.5,1.1,2.5,2.5v12.2c0,1.4-1.1,2.5-2.5,2.5H98.7c-1.4,0-2.5-1.1-2.5-2.5V90.9
	C96.2,89.5,97.3,88.4,98.7,88.4z"/>
<path class="st0" d="M118.4,88.4h12.2c1.4,0,2.5,1.1,2.5,2.5v12.2c0,1.4-1.1,2.5-2.5,2.5h-12.2c-1.4,0-2.5-1.1-2.5-2.5V90.9
	C115.9,89.5,117,88.4,118.4,88.4z"/>
<path class="st0" d="M39.6,108.1h12.2c1.4,0,2.5,1.1,2.5,2.5v12.2c0,1.4-1.1,2.5-2.5,2.5H39.6c-1.4,0-2.5-1.1-2.5-2.5v-12.2
	C37.1,109.2,38.2,108.1,39.6,108.1z"/>
<path class="st0" d="M59.3,108.1h12.2c1.4,0,2.5,1.1,2.5,2.5v12.2c0,1.4-1.1,2.5-2.5,2.5H59.3c-1.4,0-2.5-1.1-2.5-2.5v-12.2
	C56.8,109.2,57.9,108.1,59.3,108.1z"/>
<path class="st0" d="M79,108.1h12.2c1.4,0,2.5,1.1,2.5,2.5v12.2c0,1.4-1.1,2.5-2.5,2.5H79c-1.4,0-2.5-1.1-2.5-2.5v-12.2
	C76.5,109.2,77.6,108.1,79,108.1z"/>
<path class="st0" d="M98.7,108.1h12.2c1.4,0,2.5,1.1,2.5,2.5v12.2c0,1.4-1.1,2.5-2.5,2.5H98.7c-1.4,0-2.5-1.1-2.5-2.5v-12.2
	C96.2,109.2,97.3,108.1,98.7,108.1z"/>
<path class="st0" d="M138.1,108.1h12.2c1.4,0,2.5,1.1,2.5,2.5v12.2c0,1.4-1.1,2.5-2.5,2.5h-12.2c-1.4,0-2.5-1.1-2.5-2.5v-12.2
	C135.6,109.2,136.7,108.1,138.1,108.1z"/>
<path class="st0" d="M59.3,127.8h12.2c1.4,0,2.5,1.1,2.5,2.5v12.2c0,1.4-1.1,2.5-2.5,2.5H59.3c-1.4,0-2.5-1.1-2.5-2.5v-12.2
	C56.8,128.9,57.9,127.8,59.3,127.8z"/>
<path class="st0" d="M198.6,51.3c3.2-0.2,6.4,0.9,8.9,3c2.1,2.2,3.2,5.1,3,8.1c0,1.2-0.2,2.3-0.5,3.5c-0.3,1.1-0.9,2.2-1.5,3.2
	c-0.6,0.9-1.4,1.6-2.2,2.2c-0.8,0.5-1.7,1-2.6,1.3c-0.9,0.3-1.9,0.5-2.9,0.6c-1,0.1-2.1,0.1-3.1,0.1h-8.4v14.8h-5V51.3H198.6z
	 M189.2,69.1h7.8c1,0,2-0.1,3.1-0.2c1-0.1,2-0.4,2.9-1c0.9-0.6,1.5-1.4,1.9-2.4c0.4-0.9,0.6-2,0.6-3c0.1-1.4-0.2-2.7-0.9-3.9
	c-0.5-0.9-1.4-1.7-2.4-2.1c-1-0.4-2.2-0.7-3.3-0.8c-1.2-0.1-2.5-0.1-3.8-0.1h-5.9V69.1z"/>
<path class="st0" d="M249.5,69.7c0,2.5-0.4,5.1-1.2,7.5c-0.7,2.2-1.9,4.3-3.5,6c-1.5,1.7-3.4,3.1-5.5,4c-2.4,1-4.9,1.5-7.5,1.5
	c-2.7,0.1-5.4-0.5-7.8-1.6c-2.1-1-4-2.4-5.5-4.2c-1.5-1.8-2.6-3.8-3.3-6c-0.7-2.3-1.1-4.6-1.1-7c0-2.5,0.4-5,1.2-7.4
	c0.7-2.2,1.9-4.2,3.5-6c1.5-1.7,3.4-3.1,5.5-4c2.3-1,4.8-1.5,7.4-1.5c2.4,0,4.7,0.4,6.9,1.2c2.1,0.7,4,1.9,5.7,3.5
	c1.7,1.7,3,3.7,3.8,5.9C249.1,64.2,249.6,66.9,249.5,69.7z M244.3,69.3c0-1.8-0.2-3.7-0.8-5.5c-0.5-1.6-1.3-3.2-2.4-4.5
	c-1.1-1.3-2.4-2.4-3.9-3.1c-1.7-0.8-3.5-1.2-5.4-1.1c-1.8,0-3.6,0.3-5.2,1.1c-1.5,0.7-2.9,1.7-3.9,2.9c-1.1,1.3-2,2.9-2.5,4.5
	c-0.6,1.9-0.9,3.9-0.9,5.8c0,1.9,0.2,3.9,0.8,5.7c0.5,1.7,1.2,3.4,2.3,4.8c1,1.4,2.3,2.5,3.9,3.3c3.6,1.6,7.7,1.6,11.2,0
	c1.6-0.8,2.9-2,3.9-3.5c1-1.5,1.8-3.1,2.2-4.9C244.1,73.1,244.3,71.2,244.3,69.3L244.3,69.3z"/>
<path class="st0" d="M289.7,88.2h-4.9l-8.3-29.7l-7.8,29.7h-4.9L252,51.3h5.2l8.9,29.8l8-29.8h4.8l8.3,29.7l8.7-29.7h4.9L289.7,88.2
	z"/>
<path class="st0" d="M331.6,83.8v4.4h-25.9V51.3H331v4.6h-20.4v11.2h19.2v4.4h-19.2v12.3H331.6z"/>
<path class="st0" d="M351.8,51.3c1,0,2.1,0,3.1,0.1c1,0.1,1.9,0.3,2.9,0.6c0.9,0.3,1.8,0.7,2.6,1.3c1.8,1.2,3.1,3.1,3.7,5.2
	c0.3,1.1,0.4,2.3,0.4,3.5c0,1.1-0.1,2.1-0.4,3.1c-0.3,1-0.7,1.9-1.3,2.7c-0.6,0.8-1.3,1.5-2.1,2c-0.9,0.6-1.8,0.9-2.8,1.1l1.1,0.2
	c0.4,0.1,0.7,0.2,1,0.4c0.9,0.4,1.6,1,2.1,1.7c0.5,0.8,0.9,1.7,1.2,2.7c0.3,1.1,0.5,2.1,0.7,3.2c0.2,1.2,0.4,2.3,0.6,3.5
	c0.2,1.1,0.5,2.1,0.9,3.2c0.4,1,1,1.9,1.7,2.6h-6.1c-0.3-0.5-0.5-1.1-0.8-1.6c-0.2-0.5-0.4-1-0.5-1.5c-0.2-0.5-0.3-1-0.4-1.6
	l-0.3-1.7c-0.1-0.8-0.2-1.5-0.3-2.4c-0.1-0.8-0.2-1.6-0.4-2.3c-0.2-0.7-0.5-1.4-1-2c-0.5-0.6-1.1-1.2-1.8-1.5
	c-0.8-0.3-1.7-0.5-2.6-0.5c-1.1-0.1-2-0.1-2.9-0.1H342v15.3h-4.9v-37H351.8z M342,68.8h9.2c1.1,0,2.1-0.1,3.2-0.3
	c0.9-0.2,1.8-0.5,2.6-1.1c0.7-0.5,1.3-1.2,1.7-2c0.5-1,0.7-2.1,0.7-3.3c0.1-1.3-0.2-2.5-0.9-3.6c-0.6-0.9-1.3-1.5-2.3-1.9
	c-1-0.4-2.1-0.7-3.2-0.8c-1.2-0.1-2.3-0.1-3.5-0.1H342V68.8z"/>
<path class="st0" d="M385.1,51.3c1.4,0,2.7,0.1,4.1,0.2c1.3,0.1,2.5,0.4,3.7,0.9c1.1,0.5,2.2,1.1,3.1,1.9c1,0.9,1.8,2.1,2.4,3.3
	c0.4,0.9,0.7,1.9,0.8,2.8c0.2,0.9,0.3,1.9,0.3,2.9c0,1.3-0.2,2.7-0.5,4c-0.3,1.3-0.9,2.5-1.7,3.6c-0.7,1-1.6,1.9-2.7,2.6
	c-0.9,0.6-1.9,1-3,1.3c-1.1,0.3-2.2,0.5-3.3,0.5c-1.2,0.1-2.4,0.1-3.6,0.1h-5.3v12.8h-8.4V51.3H385.1z M379.3,68.6h5.2
	c0.8,0,1.6-0.1,2.4-0.2c0.8-0.1,1.5-0.4,2.1-0.8c0.6-0.4,1.2-0.9,1.5-1.6c0.4-0.8,0.6-1.8,0.6-2.7c0.1-1-0.2-2.1-0.8-3
	c-0.5-0.7-1.1-1.2-1.9-1.6c-0.8-0.4-1.6-0.6-2.5-0.6c-0.9-0.1-1.7-0.1-2.5-0.1h-4.3L379.3,68.6z"/>
<path class="st0" d="M429.3,81.3v6.9h-25.8V51.3h8.4v30H429.3z"/>
<path class="st0" d="M465,88.2h-9.3l-2.4-7.8h-11.8l-2.4,7.8h-9.2l12.5-36.9h9.5L465,88.2z M451.2,73.7l-4-14.2l-3.8,14.2H451.2z"/>
<path class="st0" d="M497.7,88.2h-7.8l-14.5-23.9c0,3,0.1,5.9,0.2,8.8c0.1,2.5,0.1,5.1,0.2,7.8s0.1,5.2,0.2,7.3h-8.2V51.3h8
	l14.3,24.2c0-0.8,0-1.7,0-2.8c0-1.1,0-2.3,0-3.6s0-2.6,0-4s0-2.7,0-4c-0.1-3.1-0.1-6.4-0.2-9.8h7.8V88.2z"/>
<path class="st0" d="M182,0L182,0l-38.6,12.1c4.2,1.4,8,3.5,11.5,6.1l0,0l-50.1,50.1l-35-34.9c-2.4-2.4-6.4-2.4-8.9,0L1.8,92.5
	c-2.4,2.5-2.4,6.4,0,8.9s6.4,2.4,8.9,0l0,0l54.7-54.7l35,35c2.4,2.4,6.4,2.4,8.9,0l54.6-54.6l0,0c2.7,3.5,4.8,7.4,6.1,11.5L182,0
	L182,0L182,0z"/>
<path class="st0" d="M502.2,58.8v-6.6H500v-0.8h5.4v0.8h-2.2v6.6H502.2z M512.1,58.8v-6l-2.2,6h-0.8l-2.2-6v6h-1v-7.4h1.4l2.2,6
	l2.1-6h1.4v7.4H512.1z"/>
</svg>
