<?xml version="1.0" encoding="utf-8"?>
<!-- Generator: Adobe Illustrator 23.0.2, SVG Export Plug-In . SVG Version: 6.00 Build 0)  -->
<svg version="1.1" id="Layer_1" xmlns="http://www.w3.org/2000/svg" xmlns:xlink="http://www.w3.org/1999/xlink" x="0px" y="0px"
	 viewBox="0 0 204.1 154.2" style="enable-background:new 0 0 204.1 154.2;" xml:space="preserve">
<style type="text/css">
	.st0{fill:#FFFFFF;}
</style>
<g>
	<path class="st0" d="M86.2,0L0,149.2v5.1h91.7V0L86.2,0L86.2,0z M10.3,143.2l35.2-60.8l17.6,30.4L10.3,143.2L10.3,143.2z
		 M85.8,106.6v33.7L71.2,115L85.8,106.6L85.8,106.6z M68.2,109.8L53.6,84.6l29.2,16.8L68.2,109.8L68.2,109.8z M83.6,148.3H13.3
		L66,117.9C66,117.9,83.6,148.3,83.6,148.3z M85.8,79.4v16.9L56.6,79.4H85.8z M50.6,73.5l35.2-60.7v60.7H50.6z M131.5,38.8H123V1
		h-4.6v42.2h13V38.8z M150.9,38.8h-9v-15h8.6v-4.3h-8.6V5.3h8.9V1h-13.4v42.2h13.6V38.8z M161.7,23.9h8.3v-4.3h-8.3V5.3h8.6V1h-13.2
		v42.2h4.6V23.9z M186.5,43.2V5.3h6.5V1h-17.5v4.3h6.5v37.9H186.5z M118.5,96.9h4.6V77.6h8.3v-4.3H123V59.1h8.6v-4.3h-13.2V96.9z
		 M137.3,54.7h4.6v42.2h-4.6V54.7z M161.9,59.1v-4.3h-13.4v42.2H162v-4.3h-9v-15h8.6v-4.3H153V59.1H161.9z M172.8,54.7h-4.6v42.2h13
		v-4.3h-8.4L172.8,54.7z M194.8,54.7H187v42.2h7.7c6.2,0,9.3-3.1,9.3-9.3V64C204.1,57.9,201,54.7,194.8,54.7z M191.6,59.1h3
		c3.4,0,4.9,1.5,4.9,5v23.6c0,3.4-1.5,5-4.9,5h-3L191.6,59.1L191.6,59.1z M123,109.5h-4.6v42.2h13v-4.3H123V109.5z M143.7,109.4
		l-7.1,42.3h4.5l1.2-7.8h7.9l1.3,7.8h4.5l-7.1-42.3H143.7L143.7,109.4z M149.5,139.7h-6.5l3.2-20.6L149.5,139.7L149.5,139.7z
		 M175.1,130.2c2.1-1.1,3.1-3.3,3.1-6.4v-6.5c0-5.1-2.6-7.7-7.7-7.7h-8.7v42.2h8.8c5.1,0,7.7-2.6,7.7-7.7v-7.3
		C178.3,133.5,177.3,131.4,175.1,130.2z M173.7,124.4c0,2.5-1.3,3.7-3.9,3.7h-3.5v-14.4h4.1c2.3,0,3.3,1,3.3,3.3V124.4z
		 M166.2,132.3h3.7c2.6,0,3.9,1.2,3.9,3.8v8.1c0,2.2-1.1,3.3-3.3,3.3h-4.3V132.3z M197.5,130.4l-6-4.4c-1.4-0.9-2.2-2.4-2.1-4.1
		v-5.2c0-2.2,1-3.1,3.3-3.1h0.9c2.3,0,3.3,0.9,3.3,3.1v7.8h4.5v-7.6c0-4.9-2.6-7.5-7.6-7.5h-1.1c-5.1,0-7.7,2.5-7.7,7.5v5
		c-0.2,3.1,1.3,6,3.9,7.7l6,4.5c1.4,0.8,2.2,2.4,2.1,4.1v6.2c0,2.1-1,3.1-3.3,3.1h-1c-2.3,0-3.3-1-3.3-3.1v-9h-4.5v8.9
		c0,4.9,2.6,7.5,7.6,7.5h1.3c5,0,7.7-2.6,7.7-7.5V138C201.7,134.9,200.2,132,197.5,130.4L197.5,130.4z"/>
</g>
</svg>
