<?xml version="1.0" encoding="utf-8"?>
<!-- Generator: Adobe Illustrator 23.0.2, SVG Export Plug-In . SVG Version: 6.00 Build 0)  -->
<svg version="1.1" id="Layer_1" xmlns="http://www.w3.org/2000/svg" xmlns:xlink="http://www.w3.org/1999/xlink" x="0px" y="0px"
	 viewBox="0 0 283.5 52.5" style="enable-background:new 0 0 283.5 52.5;" xml:space="preserve">
<style type="text/css">
	.st0{fill:#FFFFFF;}
</style>
<g>
	<path class="st0" d="M66.9,22.1c4.6,0,6,4.2,6,6.5c0,0-12.4,0-12.4,0C60.5,25.3,62.7,22.1,66.9,22.1z M80,41.5
		c-1.3,0.4-2.7,0.8-4,1.1c-1.6,0.3-3.3,0.5-4.9,0.5c-5.4,0-9.7-1.8-10.4-6.1h23.2c0.2-0.8,0.5-2.8,0.5-4.9c0-9.8-4.9-18.8-17.3-18.8
		c-12.1,0-18.5,9.5-18.5,20c0,12.2,8.5,19.2,20.5,19.2c3,0,5.3-0.3,7.1-0.6c1.9-0.4,4-1,5.8-1.8L80,41.5z"/>
	<path class="st0" d="M246.7,22.1c4.6,0,6,4.2,6,6.5c0,0-12.4,0-12.4,0C240.3,25.3,242.5,22.1,246.7,22.1z M259.9,41.5
		c-1.3,0.4-2.7,0.8-4,1.1c-1.6,0.3-3.2,0.5-4.9,0.5c-5.4,0-9.7-1.8-10.4-6.1h23.2c0.2-0.8,0.5-2.8,0.5-4.9c0-9.8-4.9-18.8-17.3-18.8
		c-12.1,0-18.5,9.5-18.5,20c0,12.2,8.5,19.2,20.5,19.2c3,0,5.3-0.3,7.1-0.6c1.9-0.4,4-1,5.8-1.8L259.9,41.5z"/>
	<path class="st0" d="M90,0.8v50.9h12.6V0.8H90z"/>
	<path class="st0" d="M127.8,43.2c-4.1,0-6.8-4-6.8-10.3c0-5,1.8-10.3,6.8-10.3c4.8,0,6.5,5.5,6.5,10.2
		C134.4,39.2,131.8,43.2,127.8,43.2z M127.6,52.5c9.8,0,19.7-6.2,19.7-20c0-8.2-4.9-19.2-19.1-19.2c-14.7,0-20,10.7-20,19.9
		C108.2,44.7,116.2,52.5,127.6,52.5z"/>
	<path class="st0" d="M152.8,14.2v37.6h12.6V14.2H152.8z"/>
	<path class="st0" d="M152.8,0.9v9.8h12.6V0.9H152.8z"/>
	<path class="st0" d="M175.3,4v10.2h-4.8v9.3h4.8v15.4c0,8.5,3.9,13.6,12.7,13.6c1.7,0,3.5-0.2,5.2-0.4c1.6-0.2,3-0.5,3.6-0.7
		c0,0-0.1-9.8-0.1-9.8c-0.4,0.1-3.3,0.6-4.3,0.6c-1,0-2.5-0.1-3.6-1.2c-0.8-0.8-1.3-2.1-1.3-4.1V23.5h8.1v-9.3c0,0-7,0-8.1,0
		c0-1.1,0-11.6,0-11.6L175.3,4z"/>
	<path class="st0" d="M204.4,4v10.2h-4.8v9.3h4.8v15.4c0,8.5,3.9,13.6,12.7,13.6c1.7,0,3.5-0.2,5.2-0.4c1.6-0.2,3-0.5,3.6-0.7
		c0,0-0.1-9.8-0.1-9.8c-0.4,0.1-3.2,0.6-4.3,0.6c-1,0-2.5-0.1-3.6-1.2c-0.8-0.8-1.3-2.1-1.3-4.1V23.5h8.1v-9.3c0,0-7,0-8.1,0
		c0-1.1,0-11.6,0-11.6L204.4,4z"/>
	<path class="st0" d="M269.6,45.6c0-3.8,3.1-6.9,6.9-6.9c3.8,0,6.9,3.1,6.9,6.9c0,3.8-3.1,6.9-6.9,6.9
		C272.7,52.5,269.6,49.4,269.6,45.6z"/>
	<path class="st0" d="M0,51.8h14.2c1,0,2.1,0,3-0.1c19.5-1,27.5-12.5,27.5-25.8C44.8,9.3,33.6,0,14.3,0C9.3,0,4.9,0.2,0,0.6V51.8z
		 M18.2,41.6c-0.5,0-1.3,0.1-1.8,0.1h-4c0,0,0-31.3,0-31.3c1.4-0.1,3.1-0.2,4.3-0.2c7.3,0,15.1,4.7,15.1,15.7
		C31.8,37.3,24.4,41.1,18.2,41.6z"/>
</g>
</svg>
