<?xml version="1.0" encoding="utf-8"?>
<!-- Generator: Adobe Illustrator 23.0.2, SVG Export Plug-In . SVG Version: 6.00 Build 0)  -->
<svg version="1.1" id="Layer_1" xmlns="http://www.w3.org/2000/svg" xmlns:xlink="http://www.w3.org/1999/xlink" x="0px" y="0px"
	 viewBox="0 0 480.4 80.6" style="enable-background:new 0 0 480.4 80.6;" xml:space="preserve">
<style type="text/css">
	.st0{fill:#FFFFFF;}
</style>
<path class="st0" d="M478.1,74.9c0-1.1-0.9-1.3-1.7-1.3h-2.1v4.9h0.7v-2.3h0.8l1.5,2.3h0.8l-1.5-2.3
	C477.4,76.2,478.1,75.9,478.1,74.9z M475.7,75.5h-0.8v-1.3h1.3c0.5,0,1.2,0.1,1.2,0.6C477.4,75.6,476.3,75.5,475.7,75.5z"/>
<path class="st0" d="M475.9,71.6c-2.5,0-4.5,1.9-4.5,4.4c0,2.5,2,4.5,4.5,4.5c2.5,0,4.5-2,4.5-4.5C480.4,73.6,478.4,71.6,475.9,71.6
	z M475.9,79.9c-2,0-3.8-1.7-3.8-3.8c0-2.1,1.8-3.8,3.8-3.8c2.1,0,3.8,1.7,3.8,3.8C479.7,78.2,477.9,79.9,475.9,79.9z"/>
<g>
	<path class="st0" d="M437.7,72.1c-4.5-1.3-10-1.4-16-0.2c-6.1,1.2-12.5,3.6-18.6,7.1c-0.9,0.5-1.8,1.1-2.7,1.6h47.6
		c-0.2-0.4-0.3-0.7-0.5-1C445.8,76,442.3,73.5,437.7,72.1z"/>
	<path class="st0" d="M450,68c-2.3-4.3-6.4-7.4-11.9-8.9c-5.4-1.6-12.1-1.7-19.2-0.3c-7.4,1.4-15.1,4.3-22.3,8.5
		c-5.5,3.1-10.4,6.8-14.7,10.9v2.4h16c1.9-1.5,3.8-2.9,5.9-4.2c7.5-4.7,15.8-7.9,23.5-8.9c7.6-1,14.1,0,18.3,3
		c3.3,2.4,5.2,5.8,5.6,10h0.6l0.2-2C452.2,74.6,451.6,71.1,450,68z"/>
	<path class="st0" d="M383.5,45.2c-0.6,0.3-1.2,0.7-1.7,1V53c16.5-12.1,34.4-16.3,49.1-17.2C418.4,32.2,400.6,35.3,383.5,45.2z"/>
	<path class="st0" d="M438.1,37.3c0.6,0.5,1.2,1,1.7,1.6c0,0,3.9,4.1,5.2,7.9l-1.3-2c-2-3.1-4.8-5.6-8.3-7.3
		c-15.9,1.3-36.2,6.3-53.7,20.7v1.1c4.7-3.7,9.7-7,15-9.7c5.7-2.9,11.4-5,17-6.3c5.7-1.3,10.9-1.8,15.7-1.4
		c9.2,0.8,15.8,4.9,19.1,11.6c0,0,2.5,5.1,2.7,10.3l-0.7-3c-0.4-1.5-0.9-3-1.6-4.3c-2.5-4.7-7.1-8.1-13.2-9.9
		c-6-1.7-13.3-1.8-21.2-0.3c-8.2,1.6-16.7,4.8-24.7,9.4c-2.8,1.6-5.5,3.4-8,5.2V77c2.8-2.9,6-5.7,9.4-8.3c5.1-3.8,10.7-7,16.5-9.5
		c11.7-5,23.1-6.6,31.4-4.3c7.6,2.1,12.2,7.4,13.2,15.2c0,0,0.5,5-0.5,10.5h10.6V38.4C459.5,37.9,450.3,36.6,438.1,37.3z"/>
	<g>
		<path class="st0" d="M397.5,22.1c-5.1,0.9-10.5,2.5-15.7,4.9v2c7-3.6,14-6,20.7-7.5C400.8,21.6,399.2,21.8,397.5,22.1z"/>
		<path class="st0" d="M381.8,0v21.5c0,0,9.1-3.1,18.7-1.7l-3.8,0.1c-4.7,0.2-9.8,1.3-14.9,3.1v2.4c7.9-3.6,17.2-5.5,25.2-4.9
			c20.2-3.4,36.3,0.8,36.3,0.8c-3.1-0.5-15.5-2.3-30.7,0c1.4,0.3,3.7,1,6,2.4l-1.9-0.7c-1.8-0.7-3.8-1.1-6-1.4
			c-9.2,1.6-19.3,4.6-29,10.3v1.2c14.7-8,30.4-11,41.9-6.9c18.3-1.3,31.8,2.4,31.8,2.4c-3.1-0.5-14-2.1-28.1-0.8
			c0.8,0.4,4.2,2.4,5.7,4.5l-0.8-0.7c-1.9-1.5-4.1-2.7-6.6-3.6c-13.3,1.4-29.1,5.5-43.8,15.2v1.1c1.3-0.8,2.5-1.6,3.8-2.4
			c10.5-6.1,21.5-9.9,31.1-10.5c7.5-0.5,14,0.8,19,4c15.2-0.3,26,2.6,26.7,2.8V0H381.8z"/>
	</g>
	<path class="st0" d="M381.8,34.6V39c12.9-7.7,26.2-11.1,37.9-12.4C409,24.9,395.2,27.7,381.8,34.6z"/>
</g>
<g>
	<path class="st0" d="M168.7,18.5h10.1c1.8,3.8,16.3,35.3,16.3,35.3h-9.2l-3.8-8.2h-16.8l-3.7,8.2h-9.3l0,0L168.7,18.5z M179.2,39.1
		L173.7,27l-5.5,12.1H179.2L179.2,39.1z"/>
	<path class="st0" d="M288.4,26.4c-5.9,0-8.7,3.1-8.7,3.1l-0.5-2.5h-7.9c0.3,1,0.8,2.8,0.8,4.3v22.5h7.8V38.2c0-4.2,2.6-6.4,8.5-6.4
		c3.2,0,5.2,1.1,5.2,6.4v15.6h7.8V38.2C301.4,30.2,298.8,26.4,288.4,26.4z"/>
	<path class="st0" d="M323.6,26.5c-13.3,0-16.3,6.3-16.3,13.9c0,7.7,2.9,14,16.9,14c5.1,0,9.9-1,11-1.2c0.2-1.4,0.7-4.3,0.8-5.3
		c-0.7,0.1-6.8,1.2-11.8,1.2c-6.5,0-8.3-2.5-8.8-5.9h22.5v-2.7C337.9,30.7,332.8,26.5,323.6,26.5z M315.4,37.7
		c0.5-3.3,2-5.9,8.1-5.9c4.5,0,6.2,2.9,6.4,5.9H315.4z"/>
	<path class="st0" d="M59.4,26.4c-9.8,0-16.3,4.3-16.3,13.9c0,9.7,6.5,14,16.3,14c9.8,0,16.3-4.3,16.3-14
		C75.7,30.8,69.2,26.4,59.4,26.4z M59.4,49c-6.5,0-8.5-3.2-8.5-8.6c0-5.3,1.9-8.6,8.5-8.6c6.5,0,8.5,3.2,8.5,8.6
		C67.9,45.8,65.9,49,59.4,49z"/>
	<path class="st0" d="M146.4,35c0-5.4-5.8-8.6-14.3-8.6c-4.4,0-9.8,1.7-11.7,2.3c-0.2,1.1-0.7,4.7-0.8,5.4c1.7-0.4,8.4-2.4,12.5-2.4
		c4.3,0,6.5,1.5,6.5,3.6v2.3c0,0-5.3-0.5-7.2-0.5c-8.5,0-13.7,3.1-13.7,8.6c0,7,7.8,8.6,11.7,8.6c5.4,0,8.1-1.4,9.4-2.6l0.4,2.1h7.8
		c-0.1-0.4-0.8-2.3-0.8-4.8V35z M138.6,43.6c0,5-4.7,5.4-9.1,5.4c-1.5,0-3.9-0.3-3.9-3.2c0-1.9,2.6-3.2,5.8-3.2h7.2V43.6z"/>
	<path class="st0" d="M21.3,17.5c9.2,0,14.9,2.9,18,7.5l0,0l-8.2,3.2c-1.8-2.5-4.8-4.1-9.7-4.2l0,0h-0.2c-4.9,0-7.8,1.6-9.6,4l0,0
		C10,30,9.2,32.7,9.2,35.7l0,0v0.5h0c0,2.9,0.9,5.7,2.4,7.8l0,0c1.8,2.4,4.7,3.9,9.6,4l0,0l0.2,0c4.9,0,7.9-1.6,9.6-4l0,0l8.3,3.2
		c-3.2,4.5-8.9,7.3-18,7.3l0,0c0,0,0,0,0,0l0,0c-8.1,0-13.5-2.1-16.8-5.8l0,0C1.5,45.3,0,40.9,0,36.1l0,0v-0.3
		c0-4.7,1.5-9.1,4.5-12.4l0,0C7.9,19.7,13.3,17.5,21.3,17.5L21.3,17.5z"/>
	<path class="st0" d="M248.7,49.5v-31h-7.8v31c0,1.9,0.7,3.8,0.8,4.2h7.8C249.4,53.3,248.7,51.5,248.7,49.5z"/>
	<path class="st0" d="M222.5,38.1c0-4.1,3.1-6.3,8.5-6.3c0.9,0,4.4,0.5,6,0.6c-0.1-0.7-0.6-4-0.9-5.4c-1.1-0.2-3.6-0.6-5.1-0.6
		c-4.6,0-7.2,1.7-8.6,3l-0.7-2.4h-7.8c0.1,0.5,0.8,2.4,0.8,4.2v22.6h7.8V38.1z"/>
	<path class="st0" d="M97.9,26.4c-4.9,0-8.7,2.9-8.7,2.9s-0.4-1.6-0.6-2.3h-7.9c0.3,1,0.8,2.8,0.8,4.8v30.5h7.8V51.7
		c1.6,1.1,4.5,2.6,8.5,2.6c13.1,0,15-6.2,15-14C112.8,32.7,111,26.4,97.9,26.4z M97.9,49c-6.7,0-8.5-3.8-8.5-8.6
		c0.1-5.2,1.8-8.6,8.5-8.6c6,0,7.2,3.8,7.2,8.6C105,45.2,103.9,49,97.9,49z"/>
	<path class="st0" d="M366.1,27.8v6.1c-1.5-0.8-3.1-1.4-4.8-1.9c-1.7-0.4-3.3-0.6-5-0.6c-1.9,0-3.3,0.2-4.2,0.7
		c-0.9,0.5-1.4,1.1-1.4,2c0,1.3,2,2.3,6.1,3.1l0.3,0.1l2.4,0.5c3,0.6,5.3,1.6,6.7,2.9c1.4,1.3,2.1,3.2,2.1,5.4
		c0,2.7-1.1,4.8-3.2,6.2c-2.2,1.4-5.4,2.1-9.7,2.1c-1.9,0-3.9-0.1-5.9-0.4c-2-0.3-4-0.7-6.1-1.2v-6.1c1.8,0.9,3.7,1.5,5.6,2
		c1.9,0.5,3.7,0.7,5.5,0.7c2,0,3.4-0.2,4.4-0.7c1-0.5,1.5-1.2,1.5-2.1c0-0.9-0.4-1.6-1.1-2c-0.7-0.5-2.4-1-5.1-1.5l-2.3-0.4
		c-3.2-0.6-5.5-1.5-7-2.8c-1.5-1.3-2.2-3-2.2-5.2c0-2.6,1.1-4.6,3.3-6c2.2-1.4,5.3-2.1,9.4-2.1c1.8,0,3.6,0.1,5.4,0.4
		C362.7,27,364.4,27.3,366.1,27.8z"/>
	<path class="st0" d="M264.3,49.5V26.9h-7.8v22.6c0,2,0.7,4,0.8,4.2h7.8C265,53.3,264.3,51.4,264.3,49.5z M260.4,24.9
		c1.7,0,2.9-0.2,3.5-0.7c0.6-0.5,0.9-1.3,0.9-2.5c0-1.2-0.3-2-0.9-2.4c-0.6-0.5-1.8-0.7-3.5-0.7c-1.7,0-2.9,0.2-3.5,0.7
		c-0.6,0.5-0.9,1.3-0.9,2.5c0,1.2,0.3,2,0.9,2.4C257.5,24.6,258.7,24.9,260.4,24.9z"/>
	<path class="st0" d="M206.9,49.5V26.9h-7.8v22.6c0,2,0.7,4,0.9,4.2h7.8C207.6,53.3,206.9,51.4,206.9,49.5z M202.9,24.9
		c1.7,0,2.8-0.2,3.5-0.7c0.6-0.5,0.9-1.3,0.9-2.5c0-1.2-0.3-2-0.9-2.4c-0.6-0.5-1.8-0.7-3.5-0.7c-1.7,0-2.9,0.2-3.5,0.7
		c-0.6,0.5-0.9,1.3-0.9,2.5c0,1.2,0.3,2,0.9,2.4C200.1,24.6,201.2,24.9,202.9,24.9z"/>
</g>
</svg>
