<?xml version="1.0" encoding="utf-8"?>
<!-- Generator: Adobe Illustrator 23.0.2, SVG Export Plug-In . SVG Version: 6.00 Build 0)  -->
<svg version="1.1" id="Layer_1" xmlns="http://www.w3.org/2000/svg" xmlns:xlink="http://www.w3.org/1999/xlink" x="0px" y="0px"
	 viewBox="0 0 271.4 56.7" style="enable-background:new 0 0 271.4 56.7;" xml:space="preserve">
<style type="text/css">
	.st0{fill:#FFFFFF;}
</style>
<g>
	<path id="path12_1_" class="st0" d="M21.2,46.4c-6.5-3-10.9-9.9-10.9-17.8c0-4.2,1.2-8.1,3.4-11.2l14.1,21h8.5l14.1-21
		c2.1,3.2,3.4,7.1,3.4,11.2c0,7.4-3.9,13.8-9.6,17.2l2.7,10.4C57,50.8,64.1,40.1,64.1,27.6c0-11.7-6.3-22-15.7-27.5L32,25.3L15.9,0
		C6.4,5.6,0,15.9,0,27.6c0,12.9,7.6,24,18.5,29L21.2,46.4z"/>
	<polygon id="polygon14_1_" class="st0" points="122.8,9.3 117.4,9.3 107.1,31.7 96.6,9.3 91.1,9.3 91.1,45.3 96.6,45.3 96.6,21.3 
		105.1,38.8 109.1,38.8 117.4,21.3 117.4,45.3 122.8,45.3 	"/>
	<path id="path16_1_" class="st0" d="M143.4,35.3c0,4-2.4,5.7-5.3,5.7c-2.9,0-5.2-1.7-5.2-5.7V19.7h-5.2v16.4c0,2.9,0.6,5.3,2.6,7.2
		c1.5,1.4,3.7,2.3,6.3,2.3c2.6,0,5.1-0.9,6.8-2.9v2.6h5.1V19.7h-5.2V35.3z"/>
	<path id="path18_1_" class="st0" d="M158.6,38V9.3h-5.2v28.9c0,3.8,2.1,7.1,7,7.1h3.2v-4.4h-2.3C159.3,40.9,158.6,39.9,158.6,38z"
		/>
	<path id="path20_1_" class="st0" d="M170.3,30.4c0.1-1.6,0.2-2.3,0.7-3.5c0.8-1.9,2.7-3.2,5.1-3.2s4.2,1.3,5.1,3.2
		c0.5,1.2,0.7,1.9,0.7,3.5H170.3z M176.1,19.4c-6.6,0-10.9,4.8-10.9,13.1c0,9.8,5.1,13.2,11.5,13.2c4.5,0,7-1.4,9.6-4l-3.3-3.1
		c-1.8,1.8-3.3,2.6-6.2,2.6c-4.2,0-6.5-2.8-6.5-7.2h16.6v-2.3C187,24.5,183,19.4,176.1,19.4z"/>
	<path id="path22_1_" class="st0" d="M212.4,27.7c-1.5-1.4-3.4-2.2-6.7-2.7l-4.1-0.6c-1.7-0.3-3.1-0.9-4-1.7c-0.9-0.9-1.4-2-1.4-3.3
		c0-3.2,2.3-5.6,6.6-5.6c3,0,5.6,0.7,7.8,2.8l3.5-3.4C211,10.3,207.7,9,202.9,9c-7.5,0-12,4.3-12,10.6c0,2.9,0.9,5.2,2.6,6.9
		c1.6,1.5,3.9,2.5,6.8,2.9l4.2,0.6c2.1,0.3,3,0.7,4,1.5c0.9,0.8,1.4,2.2,1.4,3.7c0,3.5-2.7,5.5-7.4,5.5c-3.7,0-6.6-0.8-9.2-3.4
		l-3.6,3.6c3.4,3.5,7.3,4.7,12.8,4.7c7.5,0,12.9-4,12.9-10.6C215.3,32,214.4,29.4,212.4,27.7z"/>
	<path id="path24_1_" class="st0" d="M232.8,39.5c-0.9,0.9-2.3,1.5-3.8,1.5c-1.5,0-2.8-0.6-3.7-1.5c-1.6-1.6-1.8-4.2-1.8-7
		c0-2.8,0.2-5.5,1.8-7c0.9-0.9,2.2-1.5,3.7-1.5c1.5,0,2.8,0.5,3.8,1.5c1.6,1.6,1.8,4.2,1.8,7C234.5,35.3,234.3,38,232.8,39.5z
		 M229,19.4c-3.5,0-6,1.3-7.6,3c-2.4,2.5-3,5.8-3,10.1c0,4.3,0.6,7.6,3,10.1c1.7,1.7,4.1,3,7.6,3c3.5,0,6-1.3,7.7-3
		c2.4-2.5,3-5.8,3-10.1c0-4.3-0.6-7.5-3-10.1C235,20.7,232.5,19.4,229,19.4z"/>
	<path id="path26_1_" class="st0" d="M244.9,16.2v4H242v4h2.9v21.2h5.2V24.1h5.1v-4h-5.1v-3.7c0-1.9,0.9-3,2.8-3h2.3V9.1h-3.2
		C247.1,9.1,244.9,12.5,244.9,16.2z"/>
	<path id="path28_1_" class="st0" d="M266.5,12.4h-5.2v7.8h-2.9v4h2.9v14.1c0,3.7,2.2,7.1,7,7.1h3.1v-4.4h-2.1c-1.9,0-2.8-1.1-2.8-3
		V24.1h5v-4h-5V12.4z"/>
</g>
</svg>
