<svg xmlns="http://www.w3.org/2000/svg" width="28" height="19" viewBox="0 0 28 19">
    <path fill="#21D1FA" fill-rule="evenodd" d="M2.859 3.44l10.82 6.96a1.092 1.092 0 0 0 1.223-.022l10.81-6.94v12.387H2.859V3.44zM14.273 8.17L5.499 2.525h17.565l-8.791 5.644zM27.91 1.427c0-.023-.012-.042-.013-.065a1.02 1.02 0 0 0-.056-.275 1.066 1.066 0 0 0-.057-.15c-.019-.035-.022-.074-.043-.11-.028-.041-.07-.066-.102-.103C27.62.7 27.61.67 27.588.648c-.018-.018-.044-.026-.064-.043a1.072 1.072 0 0 0-.625-.26c-.03-.003-.058-.018-.089-.018H1.758c-.033 0-.06.015-.092.018a1.084 1.084 0 0 0-.618.258c-.02.018-.047.026-.066.045C.96.67.95.7.929.725.898.762.856.785.83.828.807.862.804.9.787.937a.974.974 0 0 0-.059.15c-.03.092-.051.182-.056.276-.001.022-.012.04-.012.062v15.5a1.092 1.092 0 0 0 1.098 1.099H26.81c.528 0 .948-.378 1.055-.874.015-.075.045-.145.045-.225V1.427z"/>
</svg>
