<svg xmlns="http://www.w3.org/2000/svg" width="28" height="17" viewBox="0 0 28 17">
  <path fill="#21D1FA" fill-rule="evenodd" d="M1.099,2.19800152 C0.796,2.19900152 0.521,2.07600152 0.322,1.87600152 C0.122,1.67700152 0.001,1.40400152 1.13686838e-13,1.09900152 C1.13686838e-13,0.491001522 0.492,-0.000998478308 1.101,1.52169207e-06 L26.151,1.52169207e-06 C26.759,-0.000998478308 27.251,0.491001522 27.25,1.09900152 C27.249,1.40400152 27.128,1.67700152 26.929,1.87600152 C26.73,2.07600152 26.455,2.19900152 26.152,2.19800152 L1.099,2.19800152 Z M26.1508,7.07890152 C26.7588,7.07890152 27.2518,7.56990152 27.2508,8.17890152 C27.2498,8.48290152 27.1288,8.75690152 26.9288,8.95490152 C26.7298,9.15490152 26.4558,9.27790152 26.1518,9.27690152 L1.0988,9.27690152 C0.7968,9.27790152 0.5208,9.15490152 0.3218,8.95490152 C0.1228,8.75690152 0.0018,8.48290152 0.0008,8.17890152 C0.0008,7.56990152 0.4918,7.07890152 1.1008,7.07890152 L26.1508,7.07890152 Z M26.1508,14.1580015 C26.7588,14.1580015 27.2518,14.6490015 27.2508,15.2580015 C27.2498,15.5620015 27.1288,15.8360015 26.9288,16.0340015 C26.7298,16.2340015 26.4558,16.3570015 26.1518,16.3560015 L1.0988,16.3560015 C0.7968,16.3570015 0.5208,16.2340015 0.3218,16.0340015 C0.1228,15.8360015 0.0018,15.5620015 0.0008,15.2580015 C0.0008,14.6490015 0.4918,14.1580015 1.1008,14.1580015 L26.1508,14.1580015 Z"/>
</svg>
