<svg xmlns="http://www.w3.org/2000/svg" width="26" height="25" viewBox="0 0 26 25">
    <path fill="#21D1FA" fill-rule="evenodd" d="M5.851 15.556a7.273 7.273 0 0 1-2.146-5.176c0-1.956.763-3.795 2.146-5.177a7.31 7.31 0 0 1 5.177-2.14c1.874 0 3.747.714 5.176 2.14 2.856 2.855 2.856 7.5 0 10.353-2.853 2.854-7.5 2.854-10.353 0m18.992 6.482l-5.496-5.493c3.011-4.056 2.687-9.822-.988-13.498-4.04-4.043-10.622-4.043-14.66 0A10.288 10.288 0 0 0 .66 10.38c0 2.77 1.076 5.373 3.038 7.331a10.327 10.327 0 0 0 7.33 3.033c2.175 0 4.34-.69 6.165-2.043l5.496 5.494c.297.298.686.446 1.078.446a1.523 1.523 0 0 0 1.076-2.603"/>
</svg>
